<svg xmlns="http://www.w3.org/2000/svg" viewBox="0 0 52.547 49.252">
	<g id="Grupo_238" data-name="Grupo 238" transform="translate(102.636 -8.006)">
		<path id="Trazado_190" data-name="Trazado 190" d="M-63.609,57.258l-3.186-5.917.215-.12a19.931,19.931,0,0,0,2.389-1.629,19.583,19.583,0,0,0,2.114-1.949,20.117,20.117,0,0,0,1.812-2.24,20.025,20.025,0,0,0,1.474-2.5A20.334,20.334,0,0,0-57.7,40.195a20.089,20.089,0,0,0,.681-2.9,19.537,19.537,0,0,0,.236-3.042,19.611,19.611,0,0,0-.4-3.947,19.421,19.421,0,0,0-1.141-3.676A19.679,19.679,0,0,0-60.127,23.3a19.711,19.711,0,0,0-2.391-2.9,19.791,19.791,0,0,0-2.9-2.388,19.659,19.659,0,0,0-3.328-1.806,19.521,19.521,0,0,0-3.672-1.142,19.959,19.959,0,0,0-7.89,0,19.5,19.5,0,0,0-3.677,1.142,19.414,19.414,0,0,0-3.326,1.806,19.771,19.771,0,0,0-2.9,2.388A19.818,19.818,0,0,0-92.6,23.3a19.186,19.186,0,0,0-1.8,3.328,19.5,19.5,0,0,0-1.143,3.676,19.611,19.611,0,0,0-.4,3.947,22.553,22.553,0,0,0,.221,3.139,20.938,20.938,0,0,0,.647,2.958,19.557,19.557,0,0,0,1.049,2.741,18.469,18.469,0,0,0,1.43,2.495,18.2,18.2,0,0,0,1.789,2.219,17.743,17.743,0,0,0,2.126,1.906,18.53,18.53,0,0,0,2.437,1.568l.252.131-3.724,5.628-.211-.118a24.88,24.88,0,0,1-3.183-2.137,25.094,25.094,0,0,1-2.78-2.574,24.554,24.554,0,0,1-2.343-2.972,25.039,25.039,0,0,1-1.88-3.32,25.884,25.884,0,0,1-1.38-3.625,26.913,26.913,0,0,1-.851-3.9,28.984,28.984,0,0,1-.292-4.116,26.411,26.411,0,0,1,.534-5.294,26.313,26.313,0,0,1,1.531-4.933,26.512,26.512,0,0,1,2.421-4.459A26.4,26.4,0,0,1-94.939,15.7a26.125,26.125,0,0,1,3.887-3.208,26.375,26.375,0,0,1,4.462-2.427,26.186,26.186,0,0,1,4.932-1.526,26.477,26.477,0,0,1,10.589,0,26.1,26.1,0,0,1,4.932,1.526,26.2,26.2,0,0,1,4.464,2.427A26.219,26.219,0,0,1-57.787,15.7a26.28,26.28,0,0,1,3.214,3.891,26.011,26.011,0,0,1,2.419,4.459,26.166,26.166,0,0,1,1.531,4.933,26.244,26.244,0,0,1,.534,5.294,26.407,26.407,0,0,1-.32,4.11,25.682,25.682,0,0,1-.926,3.911,25.882,25.882,0,0,1-1.489,3.663,25.956,25.956,0,0,1-1.989,3.358,26.483,26.483,0,0,1-2.463,3.015,26.694,26.694,0,0,1-2.87,2.621,26.536,26.536,0,0,1-3.237,2.171Zm-2.5-5.723,2.7,5.018a25.851,25.851,0,0,0,2.944-2,26.265,26.265,0,0,0,2.818-2.569,25.809,25.809,0,0,0,2.409-2.956,25.85,25.85,0,0,0,1.956-3.3,24.822,24.822,0,0,0,1.457-3.584,25.244,25.244,0,0,0,.91-3.835,25.941,25.941,0,0,0,.311-4.032,25.866,25.866,0,0,0-.521-5.191,26.082,26.082,0,0,0-1.5-4.835A25.747,25.747,0,0,0-55,19.878a26.04,26.04,0,0,0-3.144-3.814,26.313,26.313,0,0,0-3.814-3.148,25.588,25.588,0,0,0-4.375-2.373,25.591,25.591,0,0,0-4.833-1.5,26.1,26.1,0,0,0-10.38,0,25.5,25.5,0,0,0-4.838,1.5,25.739,25.739,0,0,0-4.375,2.373,26.343,26.343,0,0,0-3.811,3.148,25.829,25.829,0,0,0-3.147,3.814,25.858,25.858,0,0,0-2.375,4.375,25.728,25.728,0,0,0-1.5,4.835,25.955,25.955,0,0,0-.523,5.191,28.866,28.866,0,0,0,.285,4.043A27.666,27.666,0,0,0-101,42.144,25.615,25.615,0,0,0-99.646,45.7a25.057,25.057,0,0,0,1.838,3.252,24.406,24.406,0,0,0,2.295,2.906,24.038,24.038,0,0,0,2.722,2.521,24.327,24.327,0,0,0,2.911,1.975l3.15-4.759A18.324,18.324,0,0,1-89,50.118a18.3,18.3,0,0,1-2.184-1.963,17.9,17.9,0,0,1-1.839-2.279,19.714,19.714,0,0,1-1.472-2.564,19.934,19.934,0,0,1-1.077-2.817,20.784,20.784,0,0,1-.661-3.029,22.757,22.757,0,0,1-.224-3.213,20.332,20.332,0,0,1,.4-4.052,20.255,20.255,0,0,1,1.17-3.77,20.589,20.589,0,0,1,1.855-3.416A20.679,20.679,0,0,1-90.57,20.04,20.084,20.084,0,0,1-87.6,17.59a20.107,20.107,0,0,1,3.414-1.855,19.839,19.839,0,0,1,3.773-1.17,20.249,20.249,0,0,1,8.1,0,19.915,19.915,0,0,1,3.774,1.17,20.081,20.081,0,0,1,3.411,1.855,20.7,20.7,0,0,1,2.973,2.45A20.417,20.417,0,0,1-59.7,23.015a20.438,20.438,0,0,1,1.854,3.416,20.035,20.035,0,0,1,1.171,3.77,20.118,20.118,0,0,1,.41,4.052,20.614,20.614,0,0,1-.245,3.126,20.143,20.143,0,0,1-.7,2.972,20.376,20.376,0,0,1-1.123,2.786,20.029,20.029,0,0,1-1.505,2.556,20.959,20.959,0,0,1-1.861,2.3,19.61,19.61,0,0,1-2.174,2,19.949,19.949,0,0,1-2.233,1.541" fill="#fff" />
		<path id="Trazado_191" data-name="Trazado 191" d="M-92.238,52.458a1.248,1.248,0,0,0,.392.528,1.135,1.135,0,0,0,1.672-.213,1.149,1.149,0,0,0-.164-1.661,1.486,1.486,0,0,0-.619-.293l.245-.351a1.847,1.847,0,0,1,.618.344,1.514,1.514,0,0,1,.28,2.263,1.539,1.539,0,0,1-2.258.229,1.738,1.738,0,0,1-.459-.531Z" fill="#fff" />
		<path id="Trazado_192" data-name="Trazado 192" d="M-94.358,51.144a1.445,1.445,0,0,1,.147-2.166,1.432,1.432,0,0,1,2.168-.007,1.434,1.434,0,0,1-.147,2.165,1.444,1.444,0,0,1-2.168.008m2.031-1.91a1.057,1.057,0,0,0-1.569.085,1.062,1.062,0,0,0-.184,1.56,1.065,1.065,0,0,0,1.572-.083,1.058,1.058,0,0,0,.181-1.562" fill="#fff" />
		<path id="Trazado_193" data-name="Trazado 193" d="M-96.164,48.955l-.5-.753a1.509,1.509,0,0,1,.344-2.2,1.455,1.455,0,0,1,2.209.494l.506.753Zm1.988-1.859-.257-.383a1.033,1.033,0,0,0-1.617-.333,1.072,1.072,0,0,0-.322,1.565l.285.43Z" fill="#fff" />
		<path id="Trazado_194" data-name="Trazado 194" d="M-98.2,45.689l-.746-1.548.344-.171.562,1.156.806-.392-.505-1.05.349-.167.5,1.05.914-.44-.558-1.153.351-.169.748,1.552Z" fill="#fff" />
		<path id="Trazado_195" data-name="Trazado 195" d="M-99.96,41.345l-.421-1.578.375-.1.306,1.152.869-.234-.293-1.1.376-.1.292,1.1,1.354-.357.111.424Z" fill="#fff" />
		<path id="Trazado_196" data-name="Trazado 196" d="M-100.853,37.237a1.446,1.446,0,0,1,1.4-1.657A1.432,1.432,0,0,1-97.7,36.859a1.434,1.434,0,0,1-1.4,1.656,1.446,1.446,0,0,1-1.753-1.278m2.77-.333a1.054,1.054,0,0,0-1.315-.862c-.621.076-1.158.474-1.074,1.148a1.065,1.065,0,0,0,1.318.862c.6-.067,1.155-.443,1.071-1.148" fill="#fff" />
		<path id="Trazado_197" data-name="Trazado 197" d="M-101,34.446l.028-.754c.018-.6.135-1.188.871-1.164a.714.714,0,0,1,.679.658h.008c.058-.136.125-.2.318-.291l1.24-.54-.016.5-1.081.435c-.3.128-.306.274-.313.5l-.009.266,1.362.045-.014.44Zm1.339-.4.011-.375c.016-.418-.164-.672-.46-.681-.276-.009-.459.2-.471.6l-.016.422Z" fill="#fff" />
		<path id="Trazado_198" data-name="Trazado 198" d="M-100.271,28.44l.11-.454,3.3-.5-.122.464-.827.112-.373,1.461.674.494-.112.446Zm.453-.11,1.326.971.3-1.185Z" fill="#fff" />
		<path id="Trazado_199" data-name="Trazado 199" d="M-97.771,23.091a1.382,1.382,0,0,0-.367.463c-.108.221-.156.523.134.662.529.259.984-.992,1.895-.543.59.292.6.856.328,1.414a2.06,2.06,0,0,1-.39.509l-.347-.221a1.877,1.877,0,0,0,.413-.507.548.548,0,0,0-.184-.762c-.616-.3-1.028.968-1.885.547a.862.862,0,0,1-.318-1.254,1.925,1.925,0,0,1,.389-.542Z" fill="#fff" />
		<path id="Trazado_200" data-name="Trazado 200" d="M-94.7,20.675a1.145,1.145,0,0,1,.442,1.728,1.14,1.14,0,0,1-1.763.26l-1.5-1,.248-.372,1.449.976c.488.323.93.4,1.243-.077s.082-.85-.409-1.178l-1.451-.969.246-.366Z" fill="#fff" />
		<path id="Trazado_201" data-name="Trazado 201" d="M-94.031,17.831a1.377,1.377,0,0,0-.478.348c-.163.188-.288.464-.048.674.444.39,1.216-.688,1.974-.02.489.433.354.986-.057,1.449a2.055,2.055,0,0,1-.515.386l-.274-.3a1.855,1.855,0,0,0,.532-.377.554.554,0,0,0,.024-.788c-.512-.452-1.245.664-1.962.031a.864.864,0,0,1,.022-1.292,2.207,2.207,0,0,1,.518-.422Z" fill="#fff" />
		<path id="Trazado_202" data-name="Trazado 202" d="M-92.656,16.38l-.712.636-.258-.289,1.756-1.565.259.29-.713.638L-90.54,18.1l-.325.291Z" fill="#fff" />
		<path id="Trazado_203" data-name="Trazado 203" d="M-90.468,14.136l.383-.256,2.806,1.8-.393.271-.7-.466-1.243.855.182.814-.383.265Zm.415.222.355,1.6,1.011-.69Z" fill="#fff" />
		<rect id="Rectángulo_46" data-name="Rectángulo 46" width="0.442" height="3.077" transform="translate(-88.097 12.677) rotate(-28.475)" fill="#fff" />
		<path id="Trazado_204" data-name="Trazado 204" d="M-86.49,11.849l.553-.218,2.172,1.808.007,0-.9-2.3.408-.159,1.122,2.858-.527.207-2.216-1.844-.005,0,.922,2.355-.41.158Z" fill="#fff" />
		<path id="Trazado_205" data-name="Trazado 205" d="M-81.846,10.327l.451-.1,1.924,2.73-.47.1-.468-.694-1.471.322-.142.821-.452.1Zm.3.355-.275,1.619,1.194-.255Z" fill="#fff" />
		<path id="Trazado_206" data-name="Trazado 206" d="M-78.986,9.838l.831-.054c.635-.042,1.089.134,1.128.7a.71.71,0,0,1-.588.768v.011a.72.72,0,0,1,.761.693c.043.659-.489.854-1.114.9l-.82.054Zm.526,1.28.242-.019c.423-.025.784-.087.754-.541-.026-.364-.343-.438-.6-.418l-.459.027Zm.091,1.4.327-.022c.4-.028.743-.131.719-.547-.03-.474-.449-.513-.832-.491l-.286.021Z" fill="#fff" />
		<path id="Trazado_207" data-name="Trazado 207" d="M-75.707,9.723l.441.025-.154,2.679,1.284.074-.024.388-1.722-.1Z" fill="#fff" />
		<path id="Trazado_208" data-name="Trazado 208" d="M-72.912,9.958l1.692.3-.069.384-1.259-.227-.156.89,1.146.2-.066.38-1.145-.2-.178,1,1.262.221-.068.381-1.69-.3Z" fill="#fff" />
		<path id="Trazado_209" data-name="Trazado 209" d="M-68.336,11.058l.775.3c.6.231.93.586.721,1.114a.705.705,0,0,1-.858.45v.01a.717.717,0,0,1,.392.949c-.241.613-.807.559-1.388.334l-.764-.3Zm-.581,2.685.307.121c.369.148.733.2.886-.19.168-.438-.195-.657-.548-.79l-.265-.109Zm.512-1.3.228.09c.4.156.744.248.913-.173.131-.339-.126-.543-.364-.636l-.432-.169Z" fill="#fff" />
		<path id="Trazado_210" data-name="Trazado 210" d="M-64.086,15.1a1.142,1.142,0,0,1-1.695.56,1.141,1.141,0,0,1-.379-1.743l.894-1.559.384.216-.867,1.513c-.291.513-.333.956.162,1.237s.854.021,1.146-.488l.867-1.518.381.221Z" fill="#fff" />
		<path id="Trazado_211" data-name="Trazado 211" d="M-62.082,14.328l.357.257-1.814,2.478-.356-.256Z" fill="#fff" />
		<path id="Trazado_212" data-name="Trazado 212" d="M-60.713,15.371l.33.29-1.777,2.019.966.85-.257.288-1.294-1.137Z" fill="#fff" />
		<path id="Trazado_213" data-name="Trazado 213" d="M-58.781,17.732l-.652-.7.285-.268,1.6,1.731-.283.264-.648-.7-1.978,1.826-.3-.324Z" fill="#fff" />
		<path id="Trazado_214" data-name="Trazado 214" d="M-55.9,20.72l.9,1.464-.328.206-.674-1.092-.763.466.611,1-.327.2-.611-1-.864.535.675,1.091-.331.2-.9-1.466Z" fill="#fff" />
		<path id="Trazado_215" data-name="Trazado 215" d="M-54.381,23.326l.241.548-1.72,2.238,0,.008,2.269-1,.176.406-2.814,1.235-.226-.518,1.754-2.291,0-.005-2.313,1.019-.179-.406Z" fill="#fff" />
		<path id="Trazado_216" data-name="Trazado 216" d="M-55.552,29.05l-.137-.531,2.674-1.9.125.477-2.354,1.6,0,.01,2.845.258.12.448Z" fill="#fff" />
		<path id="Trazado_217" data-name="Trazado 217" d="M-52.137,30.406l.062.436-3.039.454-.066-.432Z" fill="#fff" />
		<path id="Trazado_218" data-name="Trazado 218" d="M-51.908,32.143l.035.754c.03.606-.039,1.2-.772,1.232a.721.721,0,0,1-.733-.6h-.006a.526.526,0,0,1-.294.314l-1.2.636-.022-.505,1.043-.515c.289-.154.282-.3.276-.532l-.013-.262-1.366.062-.02-.441Zm-1.3.5.019.379c.019.415.215.652.51.64.278-.014.443-.233.423-.639l-.017-.423Z" fill="#fff" />
		<path id="Trazado_219" data-name="Trazado 219" d="M-51.909,36.791A1.447,1.447,0,0,1-53.638,38.1a1.435,1.435,0,0,1-1.432-1.63,1.437,1.437,0,0,1,1.731-1.315,1.447,1.447,0,0,1,1.43,1.633m-2.772-.28c-.071.706.482,1.067,1.093,1.127a1.066,1.066,0,0,0,1.3-.884c.07-.677-.472-1.068-1.093-1.131s-1.229.181-1.3.888" fill="#fff" />
		<path id="Trazado_220" data-name="Trazado 220" d="M-52.38,39.607l-.158.575-2.745.662v.011l2.389.645-.118.427-2.966-.808.148-.545,2.8-.677,0-.005-2.441-.664.117-.432Z" fill="#fff" />
		<path id="Trazado_221" data-name="Trazado 221" d="M-53.525,43.428l-.315.652-2.719-.237,1.889,1.961-.309.653-2.774-1.33.191-.4,2.4,1.151,0-.012L-57.118,43.8l.189-.39,2.836.236v-.007l-2.393-1.153.191-.4Z" fill="#fff" />
		<path id="Trazado_222" data-name="Trazado 222" d="M-55.825,47.747l-.989,1.412-.319-.224.74-1.048-.74-.518-.667.957-.318-.225.673-.957-.828-.578-.742,1.046-.316-.226.991-1.4Z" fill="#fff" />
		<path id="Trazado_223" data-name="Trazado 223" d="M-57.623,50.183l-.4.435-2.735-.693-.008,0,1.807,1.688-.3.324-2.245-2.1.384-.411,2.8.7.008,0-1.849-1.726.3-.324Z" fill="#fff" />
		<path id="Trazado_224" data-name="Trazado 224" d="M-61.075,53l.746-.6.242.3-1.83,1.475-.248-.3.745-.6L-63.1,51.189l.341-.279Z" fill="#fff" />
		<path id="Trazado_225" data-name="Trazado 225" d="M-77.853,30.9a.373.373,0,0,0,.406-.423.381.381,0,0,0-.406-.43h-2.993c-.3,0-.428.133-.428.43V37.4c0,.3.128.43.428.43h2.993a.382.382,0,0,0,.406-.43.374.374,0,0,0-.406-.423H-80.42V34.352H-78.6c.26,0,.4-.137.4-.423s-.141-.43-.4-.43H-80.42V30.9Z" fill="#fff" />
		<path id="Trazado_226" data-name="Trazado 226" d="M-69.262,30.451c-.1-.291-.19-.409-.469-.409s-.378.118-.468.409l-2.191,6.83a.364.364,0,0,0,.271.527.4.4,0,0,0,.545-.247l.487-1.542h2.709l.491,1.542a.407.407,0,0,0,.566.26.39.39,0,0,0,.26-.528Zm-1.519,4.714,1.05-3.207,1.053,3.207Z" fill="#fff" />
		<path id="Trazado_227" data-name="Trazado 227" d="M-61.49,30.043c-.294,0-.329.139-.5.43l-1.751,3-1.749-3c-.176-.291-.21-.43-.5-.43s-.435.133-.435.43V37.4c0,.3.132.43.435.43s.42-.126.42-.43V32.074l1.368,2.3c.106.176.212.366.465.366s.364-.19.466-.366l1.366-2.3V37.4c0,.3.118.43.421.43s.434-.126.434-.43V30.473c0-.3-.131-.43-.434-.43" fill="#fff" />
		<path id="Trazado_228" data-name="Trazado 228" d="M-73.334,30.9a.373.373,0,0,0,.409-.423.38.38,0,0,0-.409-.43h-2.985c-.305,0-.435.133-.435.43V37.4c0,.3.13.43.435.43h2.985a.382.382,0,0,0,.409-.43.374.374,0,0,0-.409-.423H-75.9V34.352h1.822c.26,0,.4-.137.4-.423s-.14-.43-.4-.43H-75.9V30.9Z" fill="#fff" />
		<path id="Trazado_229" data-name="Trazado 229" d="M-83.564,34.323a1.844,1.844,0,0,0,1.044-.61,2.324,2.324,0,0,0,.489-1.57,1.942,1.942,0,0,0-2.016-2.085s-2.087,0-2.114.009c-.242.021-.344.152-.344.427v6.922c0,.3.126.432.43.432s.421-.128.421-.432V34.355h1.142l1.783,3.249a.365.365,0,0,0,.583.167c.269-.147.311-.311.165-.579Zm-2.089-.824V30.913h1.606a1.094,1.094,0,0,1,1.169,1.23,1.415,1.415,0,0,1-.289,1.019.982.982,0,0,1-.807.337Z" fill="#fff" />
		<path id="Trazado_230" data-name="Trazado 230" d="M-87.709,34.152a2.532,2.532,0,0,0-.409-.337c.037-.038.075-.079.114-.118a2.327,2.327,0,0,0,.493-1.567,1.946,1.946,0,0,0-2.022-2.088h-2.031a.426.426,0,0,0-.424.425v6.914a.425.425,0,0,0,.424.424h2.328a1.945,1.945,0,0,0,2.021-2.085,2.283,2.283,0,0,0-.494-1.568M-91.137,30.9h1.6a1.1,1.1,0,0,1,1.17,1.234,1.483,1.483,0,0,1-.292,1.014,1.007,1.007,0,0,1-.807.355h-1.675Zm3.071,4.824a1.1,1.1,0,0,1-1.17,1.235h-1.9v-2.6h1.975a.98.98,0,0,1,.8.354,1.868,1.868,0,0,1,.292,1.014" fill="#fff" />
	</g>
</svg>
