<svg xmlns="http://www.w3.org/2000/svg" xmlns:xlink="http://www.w3.org/1999/xlink" viewBox="0 0 184.783 49.252">
	<defs>
		<clipPath id="clip-path">
			<rect id="Rectángulo_51" data-name="Rectángulo 51" width="184.746" height="49.252" fill="none" />
		</clipPath>
	</defs>
	<g id="Grupo_246" data-name="Grupo 246" transform="translate(-10.234 -7.553)">
		<rect id="Rectángulo_47" data-name="Rectángulo 47" width="23.541" height="11.485" transform="translate(57.137 7.782)" fill="#1e4f41" />
		<rect id="Rectángulo_48" data-name="Rectángulo 48" width="23.541" height="11.485" transform="translate(33.703 7.782)" fill="#62775b" />
		<rect id="Rectángulo_49" data-name="Rectángulo 49" width="23.541" height="11.485" transform="translate(10.27 7.782)" fill="#abc8aa" />
		<rect id="Rectángulo_50" data-name="Rectángulo 50" width="23.54" height="11.485" transform="translate(80.571 7.782)" fill="#0b0a0b" />
		<g id="Grupo_242" data-name="Grupo 242" transform="translate(10.27 7.553)">
			<g id="Grupo_241" data-name="Grupo 241" clip-path="url(#clip-path)">
				<path id="Trazado_231" data-name="Trazado 231" d="M173.159,12.358h3.685c6.327,0,7.807,4.646,7.807,9.812s-1.481,9.811-7.807,9.811h-3.685Zm-5.527,24.266H177.2c7.651,0,12.934-4.246,12.976-14.454-.042-10.213-5.326-14.459-12.976-14.459h-9.571ZM148.692,12.2H153.1c4.166,0,5.325,1.562,5.325,4.124s-1.159,4.127-5.325,4.127h-4.406Zm0,24.427V24.934h5.047c6.246,0,10.213-2.6,10.213-8.613s-3.967-8.61-10.213-8.61H143.167V36.624Zm-10.171,0V31.981H124.468V23.892h9.888V19.244h-9.888V12.358h13.614V7.711H118.941V36.624Z" transform="translate(-18.884 -7.566)" fill="#fff" />
				<path id="Trazado_232" data-name="Trazado 232" d="M206.246,12.857a1.168,1.168,0,0,0,1-1.229c0-.79-.533-1.313-1.484-1.313h-1.634v4.833h.439V12.937h1.252l1.127,2.211h.481Zm-1.676-2.184h1.2c.7,0,1.041.355,1.041.955a.922.922,0,0,1-1.041.95h-1.2Z" transform="translate(-25.634 -7.772)" fill="#fff" />
				<path id="Trazado_233" data-name="Trazado 233" d="M200.357,12.417a4.862,4.862,0,1,1,4.864,4.864v-.513a4.354,4.354,0,1,0-4.357-4.352,4.354,4.354,0,0,0,4.357,4.352v.513a4.865,4.865,0,0,1-4.864-4.864" transform="translate(-25.335 -7.553)" fill="#fff" />
			</g>
		</g>
		<g id="THE_INTERNATIONAL_EPD_SYSTEM" data-name="THE INTERNATIONAL EPD SYSTEM" transform="translate(10.234 45.776)" style="isolation: isolate">
			<g id="Grupo_243" data-name="Grupo 243" transform="translate(0 0.309)" style="isolation: isolate">
				<path id="Trazado_234" data-name="Trazado 234" d="M16.172,49.572v.61H13.555v6.894h-.715V50.182H10.234v-.61Z" transform="translate(-10.234 -49.415)" fill="#fff" />
				<path id="Trazado_235" data-name="Trazado 235" d="M18.162,49.572V52.83h4.456V49.572h.715v7.5h-.715V53.439H18.162v3.636h-.715v-7.5Z" transform="translate(-10.806 -49.415)" fill="#fff" />
				<path id="Trazado_236" data-name="Trazado 236" d="M30.662,49.572v.61H26.2v2.712h4.182v.61H26.2v2.962h4.518v.61H25.482v-7.5Z" transform="translate(-11.442 -49.415)" fill="#fff" />
				<path id="Trazado_237" data-name="Trazado 237" d="M36.194,49.572v7.5h-.715v-7.5Z" transform="translate(-12.234 -49.415)" fill="#fff" />
				<path id="Trazado_238" data-name="Trazado 238" d="M38.743,49.572l4.371,6.347h.021V49.572h.715v7.5h-.8L38.68,50.728h-.021v6.348h-.715v-7.5Z" transform="translate(-12.43 -49.415)" fill="#fff" />
				<path id="Trazado_239" data-name="Trazado 239" d="M51.059,49.572v.61H48.443v6.894h-.715V50.182H45.122v-.61Z" transform="translate(-12.998 -49.415)" fill="#fff" />
				<path id="Trazado_240" data-name="Trazado 240" d="M57.515,49.572v.61H53.049v2.712h4.182v.61H53.049v2.962h4.519v.61H52.334v-7.5Z" transform="translate(-13.57 -49.415)" fill="#fff" />
				<path id="Trazado_241" data-name="Trazado 241" d="M62.538,49.572a3.284,3.284,0,0,1,.877.115,2.127,2.127,0,0,1,.725.353,1.677,1.677,0,0,1,.494.61,1.953,1.953,0,0,1,.185.877,2.112,2.112,0,0,1-.368,1.24,1.68,1.68,0,0,1-1.093.672v.021a1.661,1.661,0,0,1,.61.194,1.23,1.23,0,0,1,.394.362,1.513,1.513,0,0,1,.221.51,3.665,3.665,0,0,1,.088.625c.007.126.015.28.022.463s.02.366.041.551a3.478,3.478,0,0,0,.1.526,1.009,1.009,0,0,0,.184.384H64.23a.953.953,0,0,1-.1-.258,2.282,2.282,0,0,1-.052-.316c-.011-.109-.02-.215-.026-.32s-.015-.2-.022-.273c-.013-.266-.037-.53-.068-.794a2.152,2.152,0,0,0-.2-.7,1.245,1.245,0,0,0-.44-.5,1.344,1.344,0,0,0-.795-.168H59.817v3.332H59.1v-7.5Zm-.053,3.562a1.922,1.922,0,0,0,.621-.1,1.547,1.547,0,0,0,.516-.29,1.36,1.36,0,0,0,.482-1.072,1.475,1.475,0,0,0-.4-1.092,1.661,1.661,0,0,0-1.22-.4H59.817v2.953Z" transform="translate(-14.106 -49.415)" fill="#fff" />
				<path id="Trazado_242" data-name="Trazado 242" d="M67.5,49.572l4.371,6.347h.022V49.572h.714v7.5h-.8l-4.371-6.348h-.021v6.348H66.7v-7.5Z" transform="translate(-14.708 -49.415)" fill="#fff" />
				<path id="Trazado_243" data-name="Trazado 243" d="M77.673,49.572l2.942,7.5h-.767l-.914-2.333H75.518l-.9,2.333h-.757l3.016-7.5Zm1.019,4.561-1.45-3.846-1.5,3.846Z" transform="translate(-15.275 -49.415)" fill="#fff" />
				<path id="Trazado_244" data-name="Trazado 244" d="M86.232,49.572v.61H83.615v6.894H82.9V50.182H80.295v-.61Z" transform="translate(-15.785 -49.415)" fill="#fff" />
				<path id="Trazado_245" data-name="Trazado 245" d="M88.281,49.572v7.5h-.715v-7.5Z" transform="translate(-16.361 -49.415)" fill="#fff" />
				<path id="Trazado_246" data-name="Trazado 246" d="M89.829,51.828a3.69,3.69,0,0,1,.662-1.246,3.183,3.183,0,0,1,1.109-.861,3.9,3.9,0,0,1,3.095,0,3.223,3.223,0,0,1,1.1.861,3.706,3.706,0,0,1,.662,1.246,5.1,5.1,0,0,1,0,2.964,3.641,3.641,0,0,1-.662,1.239,3.233,3.233,0,0,1-1.1.856,3.886,3.886,0,0,1-3.095,0,3.194,3.194,0,0,1-1.109-.856,3.625,3.625,0,0,1-.662-1.239,5.08,5.08,0,0,1,0-2.964Zm.657,2.685a3.226,3.226,0,0,0,.5,1.061,2.544,2.544,0,0,0,.878.752,3.037,3.037,0,0,0,2.559,0,2.556,2.556,0,0,0,.872-.752,3.208,3.208,0,0,0,.5-1.061,4.517,4.517,0,0,0,0-2.411,3.219,3.219,0,0,0-.5-1.056,2.553,2.553,0,0,0-.872-.751,3.019,3.019,0,0,0-2.559,0,2.541,2.541,0,0,0-.878.751,3.238,3.238,0,0,0-.5,1.056,4.542,4.542,0,0,0,0,2.411Z" transform="translate(-16.523 -49.401)" fill="#fff" />
				<path id="Trazado_247" data-name="Trazado 247" d="M99.285,49.572l4.371,6.347h.021V49.572h.715v7.5h-.8l-4.371-6.348H99.2v6.348h-.715v-7.5Z" transform="translate(-17.227 -49.415)" fill="#fff" />
				<path id="Trazado_248" data-name="Trazado 248" d="M109.457,49.572l2.943,7.5h-.767l-.915-2.333H107.3l-.9,2.333h-.756l3.016-7.5Zm1.02,4.561-1.451-3.846-1.5,3.846Z" transform="translate(-17.794 -49.415)" fill="#fff" />
				<path id="Trazado_249" data-name="Trazado 249" d="M114.437,49.572v6.893h4.2v.61h-4.919v-7.5Z" transform="translate(-18.434 -49.415)" fill="#fff" />
				<path id="Trazado_250" data-name="Trazado 250" d="M128.2,49.572v.61h-4.467v2.712h4.182v.61h-4.182v2.962h4.518v.61h-5.233v-7.5Z" transform="translate(-19.171 -49.415)" fill="#fff" />
				<path id="Trazado_251" data-name="Trazado 251" d="M133.121,49.572a2.77,2.77,0,0,1,.914.142,1.935,1.935,0,0,1,.7.42,1.871,1.871,0,0,1,.451.679,2.657,2.657,0,0,1,0,1.807,1.859,1.859,0,0,1-.451.678,1.923,1.923,0,0,1-.7.42,2.77,2.77,0,0,1-.914.142h-2.616v3.216h-.715v-7.5Zm-.157,3.678a1.844,1.844,0,0,0,1.209-.378,1.677,1.677,0,0,0,0-2.312,1.854,1.854,0,0,0-1.209-.378h-2.458V53.25Z" transform="translate(-19.707 -49.415)" fill="#fff" />
				<path id="Trazado_252" data-name="Trazado 252" d="M139.576,49.572a3.509,3.509,0,0,1,2.58.961,3.938,3.938,0,0,1,.866,2.79,3.939,3.939,0,0,1-.866,2.791,3.509,3.509,0,0,1-2.58.961h-2.6v-7.5Zm-.357,6.893a4.909,4.909,0,0,0,1.392-.173,2.224,2.224,0,0,0,.961-.552,2.277,2.277,0,0,0,.557-.977,5.89,5.89,0,0,0,0-2.879,2.281,2.281,0,0,0-.557-.978,2.232,2.232,0,0,0-.961-.551,4.906,4.906,0,0,0-1.392-.174h-1.524v6.283Z" transform="translate(-20.277 -49.415)" fill="#fff" />
			</g>
			<g id="Grupo_244" data-name="Grupo 244" transform="translate(123.317)" style="isolation: isolate">
				<path id="Trazado_253" data-name="Trazado 253" d="M147.344,49.24a2.185,2.185,0,0,1,.723.483,2.355,2.355,0,0,1,.482,2.519,2.21,2.21,0,0,1-1.2,1.2,2.408,2.408,0,0,1-1.8,0,2.2,2.2,0,0,1-1.2-1.2,2.324,2.324,0,0,1,.481-2.519,2.2,2.2,0,0,1,.724-.483,2.407,2.407,0,0,1,1.8,0Zm-1.67.3a1.914,1.914,0,0,0-.61.417,1.891,1.891,0,0,0-.4.619,2.117,2.117,0,0,0,0,1.533,1.885,1.885,0,0,0,1.012,1.036,1.924,1.924,0,0,0,.77.153,1.9,1.9,0,0,0,1.373-.57,1.933,1.933,0,0,0,.4-.619,2.056,2.056,0,0,0,0-1.533,1.889,1.889,0,0,0-1.014-1.036,1.889,1.889,0,0,0-.762-.153A1.909,1.909,0,0,0,145.674,49.543Zm-.059,3.12V50.027h1.012a.952.952,0,0,1,.653.187.7.7,0,0,1,.205.542.806.806,0,0,1-.052.3.637.637,0,0,1-.145.218.721.721,0,0,1-.212.141,1.131,1.131,0,0,1-.254.076l.785,1.17h-.38l-.741-1.17h-.545v1.17Zm1.046-1.456a.834.834,0,0,0,.254-.052.382.382,0,0,0,.178-.138.442.442,0,0,0,.067-.261.425.425,0,0,0-.052-.227.39.39,0,0,0-.141-.138.573.573,0,0,0-.2-.07,1.35,1.35,0,0,0-.233-.018h-.594v.912h.429C146.468,51.216,146.565,51.213,146.661,51.207Z" transform="translate(-144.163 -49.065)" fill="#fff" />
			</g>
			<g id="Grupo_245" data-name="Grupo 245" transform="translate(131.344 0.309)" style="isolation: isolate">
				<path id="Trazado_254" data-name="Trazado 254" d="M153.778,55.559a1.575,1.575,0,0,0,.52.62,2.126,2.126,0,0,0,.783.331,4.43,4.43,0,0,0,.966.1,2.777,2.777,0,0,0,.642-.083,2.244,2.244,0,0,0,.646-.269,1.639,1.639,0,0,0,.5-.472,1.2,1.2,0,0,0,.2-.7,1.026,1.026,0,0,0-.143-.547,1.3,1.3,0,0,0-.367-.389,2.147,2.147,0,0,0-.5-.257,5.05,5.05,0,0,0-.536-.164l-1.671-.409a5.234,5.234,0,0,1-.635-.21,1.8,1.8,0,0,1-.541-.337,1.6,1.6,0,0,1-.373-.515,1.758,1.758,0,0,1-.142-.746,2.379,2.379,0,0,1,.1-.641,1.773,1.773,0,0,1,.4-.694,2.3,2.3,0,0,1,.793-.552,3.171,3.171,0,0,1,1.292-.226,3.8,3.8,0,0,1,1.063.146,2.622,2.622,0,0,1,.882.442,2.127,2.127,0,0,1,.831,1.744h-.715a1.758,1.758,0,0,0-.194-.751,1.681,1.681,0,0,0-.453-.536,2.005,2.005,0,0,0-.641-.326,2.6,2.6,0,0,0-.761-.11,3.2,3.2,0,0,0-.71.079,1.791,1.791,0,0,0-.6.253A1.3,1.3,0,0,0,154,50.8a1.443,1.443,0,0,0-.157.7,1.068,1.068,0,0,0,.09.458.954.954,0,0,0,.246.331,1.256,1.256,0,0,0,.363.221,2.832,2.832,0,0,0,.436.137l1.83.451a5.281,5.281,0,0,1,.75.258,2.493,2.493,0,0,1,.621.378,1.609,1.609,0,0,1,.42.552,1.85,1.85,0,0,1,.153.787,3.061,3.061,0,0,1-.026.337,1.746,1.746,0,0,1-.127.447,2.2,2.2,0,0,1-.284.478,1.8,1.8,0,0,1-.5.436,2.918,2.918,0,0,1-.795.315,4.606,4.606,0,0,1-1.134.122,4.741,4.741,0,0,1-1.229-.153,2.659,2.659,0,0,1-.967-.468,2.065,2.065,0,0,1-.615-.809,2.633,2.633,0,0,1-.183-1.187h.714A2.12,2.12,0,0,0,153.778,55.559Z" transform="translate(-152.88 -49.401)" fill="#fff" />
				<path id="Trazado_255" data-name="Trazado 255" d="M159.561,49.572h.841l2.469,3.8,2.459-3.8h.851l-2.963,4.413v3.09H162.5v-3.09Z" transform="translate(-153.41 -49.415)" fill="#fff" />
				<path id="Trazado_256" data-name="Trazado 256" d="M167.94,55.559a1.575,1.575,0,0,0,.52.62,2.133,2.133,0,0,0,.783.331,4.432,4.432,0,0,0,.967.1,2.776,2.776,0,0,0,.641-.083,2.245,2.245,0,0,0,.646-.269,1.64,1.64,0,0,0,.5-.472,1.2,1.2,0,0,0,.2-.7,1.026,1.026,0,0,0-.143-.547,1.3,1.3,0,0,0-.367-.389,2.147,2.147,0,0,0-.5-.257,5.05,5.05,0,0,0-.536-.164l-1.67-.409a5.2,5.2,0,0,1-.636-.21,1.811,1.811,0,0,1-.541-.337,1.61,1.61,0,0,1-.373-.515,1.758,1.758,0,0,1-.142-.746,2.379,2.379,0,0,1,.1-.641,1.773,1.773,0,0,1,.4-.694,2.3,2.3,0,0,1,.793-.552,3.171,3.171,0,0,1,1.292-.226,3.8,3.8,0,0,1,1.063.146,2.622,2.622,0,0,1,.882.442,2.127,2.127,0,0,1,.831,1.744h-.715a1.758,1.758,0,0,0-.194-.751,1.681,1.681,0,0,0-.453-.536,2,2,0,0,0-.641-.326,2.6,2.6,0,0,0-.761-.11,3.193,3.193,0,0,0-.709.079,1.788,1.788,0,0,0-.6.253,1.307,1.307,0,0,0-.415.457,1.443,1.443,0,0,0-.157.7,1.068,1.068,0,0,0,.09.458.954.954,0,0,0,.246.331,1.27,1.27,0,0,0,.363.221,2.832,2.832,0,0,0,.436.137l1.83.451a5.281,5.281,0,0,1,.75.258,2.494,2.494,0,0,1,.621.378,1.609,1.609,0,0,1,.42.552,1.85,1.85,0,0,1,.153.787,3.057,3.057,0,0,1-.026.337,1.744,1.744,0,0,1-.127.447,2.232,2.232,0,0,1-.283.478,1.817,1.817,0,0,1-.5.436,2.918,2.918,0,0,1-.795.315,4.6,4.6,0,0,1-1.134.122,4.741,4.741,0,0,1-1.229-.153,2.659,2.659,0,0,1-.967-.468,2.065,2.065,0,0,1-.615-.809,2.646,2.646,0,0,1-.183-1.187h.714A2.132,2.132,0,0,0,167.94,55.559Z" transform="translate(-154.002 -49.401)" fill="#fff" />
				<path id="Trazado_257" data-name="Trazado 257" d="M179.718,49.572v.61H177.1v6.894h-.715V50.182H173.78v-.61Z" transform="translate(-154.536 -49.415)" fill="#fff" />
				<path id="Trazado_258" data-name="Trazado 258" d="M186.173,49.572v.61h-4.466v2.712h4.182v.61h-4.182v2.962h4.518v.61h-5.234v-7.5Z" transform="translate(-155.108 -49.415)" fill="#fff" />
				<path id="Trazado_259" data-name="Trazado 259" d="M188.789,49.572l2.49,6.579,2.586-6.579h1.051v7.5H194.2V50.591h-.021l-2.564,6.484h-.672l-2.469-6.484h-.02v6.484h-.715v-7.5Z" transform="translate(-155.642 -49.415)" fill="#fff" />
			</g>
		</g>
	</g>
</svg>
