<svg xmlns="http://www.w3.org/2000/svg" viewBox="0 0 185.18 49.252">
	<g id="Grupo_231" data-name="Grupo 231" transform="translate(-275.767 -8.007)">
		<path id="Trazado_133" data-name="Trazado 133" d="M325.063,23.631q-.762.406-1.795.853c-.6.241-1.3.494-2.112.764a16.553,16.553,0,0,1-2.652.628,27.623,27.623,0,0,0-.606,3.881,15.039,15.039,0,0,0,.111,3.589A9.819,9.819,0,0,0,319,36.4a6.59,6.59,0,0,0,2.021,2.311q1.752,1.213,3.439,2.222t3.077,1.973a14.89,14.89,0,0,1,2.38,2.018,5.544,5.544,0,0,1,1.348,2.4,6.77,6.77,0,0,1,.225,1.817,5.081,5.081,0,0,1-.45,2.042,6.923,6.923,0,0,1-1.8,2.288,10.291,10.291,0,0,1-2.831,1.549,11.8,11.8,0,0,1-4.581.6,18.12,18.12,0,0,1-5.3-.9,11.762,11.762,0,0,1-2.022-.831,8.388,8.388,0,0,1-1.819-1.281,7.011,7.011,0,0,1-1.393-1.774,6.573,6.573,0,0,1-.74-2.359,7.634,7.634,0,0,1,.113-3.011,7.2,7.2,0,0,1,.829-1.933,2.157,2.157,0,0,1,1.124-.9,2.6,2.6,0,0,1,1.349-.092,2.627,2.627,0,0,1,1.213.607,2.069,2.069,0,0,1,.672,1.235v.247a1.091,1.091,0,0,1-.089.383,7.161,7.161,0,0,0-.583,1.1,8.247,8.247,0,0,0-.562,1.751,6.351,6.351,0,0,0-.092,2,3.415,3.415,0,0,0,.854,1.887,5.465,5.465,0,0,0,2.292,1.416,12.854,12.854,0,0,0,4.247.562,7.855,7.855,0,0,0,3.549-.653,5.642,5.642,0,0,0,1.888-1.46,3.96,3.96,0,0,0,.808-2.157,2.607,2.607,0,0,0-.27-1.326,5.286,5.286,0,0,0-.9-1.28,9.532,9.532,0,0,0-1.348-1.191q-.766-.561-1.573-1.057a30.106,30.106,0,0,0-4.4-2.2,9.046,9.046,0,0,1-3.661-2.629,11.13,11.13,0,0,1-2.022-3.819,16.7,16.7,0,0,1-.7-4.583,27.46,27.46,0,0,1,.358-4.921,44.607,44.607,0,0,1-5.028.248c-2.979.015-4.161-.113-8.356-.382-4.7-.294-4.653-.469-7.872-.528a28.667,28.667,0,0,0-6.393.423,12.876,12.876,0,0,0-4.989,1.7,8.15,8.15,0,0,0-2.851,3.258.687.687,0,0,1-.4.359.594.594,0,0,1-.539-.091,2.476,2.476,0,0,1-.7-.538,2.8,2.8,0,0,1-.562-.989,2.988,2.988,0,0,1-.046-1.977,3.271,3.271,0,0,1,1.123-1.617,9.86,9.86,0,0,1,1.574-.924,13.162,13.162,0,0,1,2.427-.858,22.692,22.692,0,0,1,3.414-.578,34.374,34.374,0,0,1,4.583-.111c2.126.088,3,.185,5.833.291s1.8.193,4.952.267,3.942.1,7.207.089,4-.1,7.029-.243a40.245,40.245,0,0,1,1.911-5.976,29.485,29.485,0,0,1,2.314-4.629,17.348,17.348,0,0,1,2.379-3.01,11.724,11.724,0,0,1,2.63-1.954,5.438,5.438,0,0,1,3.258-.653,4.431,4.431,0,0,1,2.493,1.1,6.791,6.791,0,0,1,1.417,1.867,8.714,8.714,0,0,1,.717,2.56,9.216,9.216,0,0,1-.358,3.6,11.956,11.956,0,0,1-1.776,3.28,11.558,11.558,0,0,1-3.977,3.189m-5.975,0a17.241,17.241,0,0,0,1.888-.539q.9-.313,1.617-.629c.539-.24,1.049-.493,1.529-.764a13.313,13.313,0,0,0,1.864-1.3,10.381,10.381,0,0,0,1.662-1.754,7.228,7.228,0,0,0,1.123-2.223,7.029,7.029,0,0,0,.247-2.719,5.845,5.845,0,0,0-.358-1.528,3.049,3.049,0,0,0-.7-1.056,1.667,1.667,0,0,0-1.236-.471,2.969,2.969,0,0,0-1.953.943,11.44,11.44,0,0,0-1.6,1.932,17.257,17.257,0,0,0-1.483,2.787q-.719,1.707-1.417,3.55a35.558,35.558,0,0,0-1.19,3.773" fill="#fff" />
		<path id="Trazado_134" data-name="Trazado 134" d="M342.627,29.132a1.19,1.19,0,0,1,.091.45,1.282,1.282,0,0,1-.494.944,10.006,10.006,0,0,1-1.619,1.259,11.189,11.189,0,0,1-1.572.807,10.354,10.354,0,0,1-.764,3.978,7.785,7.785,0,0,1-1.439,2.177,4.393,4.393,0,0,1-2.02,1.125,5.543,5.543,0,0,1-3.237-.382,5.891,5.891,0,0,1-2.2-1.8,6.943,6.943,0,0,1-1.189-2.516,7.256,7.256,0,0,1-.2-2.585,6.515,6.515,0,0,1,1.032-3.032,10.094,10.094,0,0,1,1.259-1.55,5.648,5.648,0,0,1,.066-1.955,4.853,4.853,0,0,1,.653-1.616,3.552,3.552,0,0,1,1.079-1.1,2.3,2.3,0,0,1,1.254-.406,4.368,4.368,0,0,1,1.823.45,5.423,5.423,0,0,1,1.8,1.417,8.378,8.378,0,0,1,1.414,2.515,12,12,0,0,1,.674,3.707,6.273,6.273,0,0,0,1.64-.9,8.72,8.72,0,0,0,1.143-1.032.452.452,0,0,1,.273-.18.466.466,0,0,1,.538.223m-8.312,8.854a1.786,1.786,0,0,0,1.011-.7,5.014,5.014,0,0,0,.7-1.281,8.063,8.063,0,0,0,.4-1.5c.089-.524.149-1,.182-1.415a5.645,5.645,0,0,1-2.339-.36,11.454,11.454,0,0,1-1.437-.673,4.4,4.4,0,0,0-.136.673q-.043.357-.089.764a6.014,6.014,0,0,0,.043,2.47,4.06,4.06,0,0,0,.631,1.348,2.3,2.3,0,0,0,1.033.676m-.9-11.1a1.068,1.068,0,0,0-.428.381,2.3,2.3,0,0,0-.245.517,5.678,5.678,0,0,1,.58.2,3.529,3.529,0,0,1,.5.248.74.74,0,0,1,.317.449.517.517,0,0,1-.137.539,4.888,4.888,0,0,0-.539.988,2.815,2.815,0,0,0,.583.451,3.4,3.4,0,0,0,.586.269c.207.089.4.165.583.225a3.905,3.905,0,0,0,.765.177c.24.032.479.063.719.092a8.564,8.564,0,0,0-.472-2.448,3.334,3.334,0,0,0-1.6-2,2.445,2.445,0,0,0-.586-.2.879.879,0,0,0-.627.113" fill="#fff" />
		<path id="Trazado_135" data-name="Trazado 135" d="M361.994,39.376c.059.15.119.315.178.494a4.224,4.224,0,0,1,.136,1.125,2.605,2.605,0,0,1-.337,1.279,1.558,1.558,0,0,1-1.325.7,2.67,2.67,0,0,1-.99-.18,1.887,1.887,0,0,1-.628-.518,1.484,1.484,0,0,1-.18-1.1,4.351,4.351,0,0,0-.066-1.146,2.6,2.6,0,0,0-.518-1.124,3.806,3.806,0,0,0-1.1-.921,5.293,5.293,0,0,0-1.776-.583q-.312,1.572-.583,2.876t-.494,2.2q-.273,1.078-.495,1.888a27.587,27.587,0,0,1-1.683,4.649,18.783,18.783,0,0,1-2.362,3.8,13.627,13.627,0,0,1-2.986,2.763,9.328,9.328,0,0,1-5.483,1.684,8.051,8.051,0,0,1-2.358-.4,5.79,5.79,0,0,1-2.473-1.573,5.9,5.9,0,0,1-1.3-2.561,8.461,8.461,0,0,1,.268-4.312,12.66,12.66,0,0,1,1.977-4.044,18.736,18.736,0,0,1,3.528-3.708,22.914,22.914,0,0,1,4.674-2.9,19.939,19.939,0,0,1,5.46-1.664q.627-3.864.83-6.965t.157-5.482a15.176,15.176,0,0,1-1.753,5.326,8.237,8.237,0,0,1-2.29,2.539,4.929,4.929,0,0,1-2.831.809,3.065,3.065,0,0,1-2.4-1.393,7.945,7.945,0,0,1-1.236-3.484,20.882,20.882,0,0,1,0-5.122,37.948,37.948,0,0,1,1.258-6.268.689.689,0,0,1,.854-.63,7.579,7.579,0,0,1,1.5.182,4.326,4.326,0,0,1,1.6.673,1.1,1.1,0,0,1,.449,1.257c-.089.421-.218,1-.382,1.752s-.329,1.558-.494,2.428-.315,1.76-.449,2.673-.225,1.745-.269,2.495a8.435,8.435,0,0,0,.067,1.91q.133.786.539.874a1.3,1.3,0,0,0,1.258-.38,5.763,5.763,0,0,0,1.166-1.551,16.431,16.431,0,0,0,1.014-2.269q.469-1.281.853-2.561c.256-.855.471-1.647.651-2.381s.316-1.327.406-1.777c.028-.149.051-.269.067-.358a1.41,1.41,0,0,0,.023-.226v-.178a.829.829,0,0,1,.808-.765,6.586,6.586,0,0,1,1.436.068c.451.074.84.157,1.17.246a1.62,1.62,0,0,1,1.347,1.574,60.261,60.261,0,0,1,.045,9.032q-.314,4.312-.852,7.816c.54.061,1.129.151,1.775.271a8.643,8.643,0,0,1,1.885.583,6.769,6.769,0,0,1,1.64,1.012,3.739,3.739,0,0,1,1.08,1.55M338.853,54.25a4.357,4.357,0,0,0,3.46.089,8.433,8.433,0,0,0,3.079-2.247,16.276,16.276,0,0,0,2.493-3.8,21.639,21.639,0,0,0,1.617-4.561q.4-1.617.719-3.123c.212-1,.4-1.984.585-2.943a21.4,21.4,0,0,0-3.372,1.169,21.653,21.653,0,0,0-3.369,1.841,19.836,19.836,0,0,0-3.03,2.495,15.411,15.411,0,0,0-2.4,3.078,7.527,7.527,0,0,0-.675,1.3,8.512,8.512,0,0,0-.473,1.327,10.184,10.184,0,0,0-.292,1.549,6.631,6.631,0,0,0,.2,2.246,2.343,2.343,0,0,0,1.46,1.574" fill="#fff" />
		<path id="Trazado_136" data-name="Trazado 136" d="M387.959,50.222a9.8,9.8,0,0,1-1.243,2.568,8.141,8.141,0,0,1-1.874,1.953,8.512,8.512,0,0,1-2.419,1.244,9.154,9.154,0,0,1-2.89.442,8.435,8.435,0,0,1-3.544-.75,8.731,8.731,0,0,1-2.85-2.06,9.808,9.808,0,0,1-1.9-3.076,10.725,10.725,0,0,1,0-7.6,9.825,9.825,0,0,1,1.9-3.077,8.775,8.775,0,0,1,2.85-2.06,8.45,8.45,0,0,1,3.544-.749,9.658,9.658,0,0,1,2.929.428A8.216,8.216,0,0,1,384.9,38.72a8.133,8.133,0,0,1,1.872,1.953,9.213,9.213,0,0,1,1.219,2.568h-3.826a5.324,5.324,0,0,0-1.819-2.113,4.823,4.823,0,0,0-2.809-.83,4.627,4.627,0,0,0-2.14.508,5.516,5.516,0,0,0-1.725,1.391,6.807,6.807,0,0,0-1.164,2.06,7.229,7.229,0,0,0-.429,2.488,7.312,7.312,0,0,0,.429,2.515,6.789,6.789,0,0,0,1.164,2.059,5.474,5.474,0,0,0,1.725,1.391,4.6,4.6,0,0,0,2.14.509,4.722,4.722,0,0,0,2.809-.857,5.533,5.533,0,0,0,1.819-2.14Z" fill="#fff" />
		<path id="Trazado_137" data-name="Trazado 137" d="M392.775,56.108h-3.532V42.331h3.532Zm-1.767-19.02a1.751,1.751,0,0,0-1.27.508,1.69,1.69,0,0,0-.522,1.257v.214a1.691,1.691,0,0,0,.522,1.258,1.725,1.725,0,0,0,1.244.508,1.754,1.754,0,0,0,1.27-.508,1.688,1.688,0,0,0,.523-1.258v-.214a1.687,1.687,0,0,0-.523-1.257,1.718,1.718,0,0,0-1.244-.508" fill="#fff" />
		<path id="Trazado_138" data-name="Trazado 138" d="M402.163,45.381a3.343,3.343,0,0,0-2.715.494,2.677,2.677,0,0,0-1.03,2.26v7.973h-3.532V48.135a6.986,6.986,0,0,1,.5-2.674,5.435,5.435,0,0,1,1.432-2.034,5.7,5.7,0,0,1,2.288-1.2,7.809,7.809,0,0,1,3.062-.161Z" fill="#fff" />
		<path id="Trazado_139" data-name="Trazado 139" d="M416.1,51.453a6.413,6.413,0,0,1-2.38,3.665,6.982,6.982,0,0,1-4.28,1.311,7.191,7.191,0,0,1-2.863-.563,6.741,6.741,0,0,1-2.245-1.537,7.166,7.166,0,0,1-1.472-2.287,7.338,7.338,0,0,1-.536-2.81,7.43,7.43,0,0,1,.536-2.821,7.11,7.11,0,0,1,1.472-2.3,6.927,6.927,0,0,1,2.245-1.551,7.044,7.044,0,0,1,2.863-.575,6.915,6.915,0,0,1,4.266,1.31,6.455,6.455,0,0,1,2.368,3.665H412.3a3.486,3.486,0,0,0-1.136-1.217,3.092,3.092,0,0,0-3.091-.2,3.669,3.669,0,0,0-1.123.87,4.191,4.191,0,0,0-.762,1.284,4.352,4.352,0,0,0-.28,1.564,4.174,4.174,0,0,0,.28,1.525,4.246,4.246,0,0,0,.762,1.271,3.506,3.506,0,0,0,1.123.856A3.218,3.218,0,0,0,411.2,52.7a3.165,3.165,0,0,0,1.123-1.244Z" fill="#fff" />
		<path id="Trazado_140" data-name="Trazado 140" d="M429.555,50.276a6.582,6.582,0,0,1-.442,2.434,5.741,5.741,0,0,1-1.256,1.953,5.8,5.8,0,0,1-1.966,1.3,6.668,6.668,0,0,1-2.541.469,6.9,6.9,0,0,1-2.582-.455,5.356,5.356,0,0,1-3.13-3.21,7.124,7.124,0,0,1-.415-2.488V42.331h3.531v8.052a4.269,4.269,0,0,0,.08.735,2.482,2.482,0,0,0,.348.87,2.171,2.171,0,0,0,.776.722A2.773,2.773,0,0,0,423.35,53a2.63,2.63,0,0,0,1.925-.735,2.529,2.529,0,0,0,.748-1.886V42.331h3.532Z" fill="#fff" />
		<path id="Trazado_141" data-name="Trazado 141" d="M431.375,37.541h3.531V50.33a2.618,2.618,0,0,0,.66,2.046,2.7,2.7,0,0,0,1.988.494v3.211a6.823,6.823,0,0,1-2.676-.187,4.6,4.6,0,0,1-1.926-1.11,4.9,4.9,0,0,1-1.176-1.9,7.6,7.6,0,0,1-.4-2.554Z" fill="#fff" />
		<path id="Trazado_142" data-name="Trazado 142" d="M460.906,45.381a3.343,3.343,0,0,0-2.715.494,2.68,2.68,0,0,0-1.03,2.26v7.973H453.63V48.135a6.967,6.967,0,0,1,.5-2.674,5.442,5.442,0,0,1,1.43-2.034,5.712,5.712,0,0,1,2.287-1.2,7.814,7.814,0,0,1,3.063-.161Z" fill="#fff" />
		<path id="Trazado_143" data-name="Trazado 143" d="M451.7,56.13h-3.342V54.67a5.059,5.059,0,0,1-1.86,1.309,6.1,6.1,0,0,1-2.341.445,6.027,6.027,0,0,1-2.569-.561,6.647,6.647,0,0,1-2.1-1.535,7.433,7.433,0,0,1-1.939-5.06,7.583,7.583,0,0,1,.522-2.818,7.034,7.034,0,0,1,13.108,0,7.6,7.6,0,0,1,.521,2.816Zm-3.53-6.862a4.231,4.231,0,0,0-.282-1.548,4.039,4.039,0,0,0-.767-1.252,3.6,3.6,0,0,0-1.127-.84,3.151,3.151,0,0,0-1.37-.306,3.253,3.253,0,0,0-1.368.294,3.4,3.4,0,0,0-1.129.825,4.07,4.07,0,0,0-.765,1.254,4.251,4.251,0,0,0-.281,1.573,4.069,4.069,0,0,0,.281,1.532,3.92,3.92,0,0,0,.765,1.226,3.473,3.473,0,0,0,1.129.814,3.238,3.238,0,0,0,1.368.294,3.152,3.152,0,0,0,1.37-.307A3.682,3.682,0,0,0,447.125,52a3.917,3.917,0,0,0,.767-1.227,4.044,4.044,0,0,0,.282-1.506" fill="#fff" />
		<path id="Trazado_144" data-name="Trazado 144" d="M373.428,24.225h7.023V27.3h-7.023v1.674a2.4,2.4,0,0,0,.5,1.712,2.314,2.314,0,0,0,1.7.513h6.1v3.249H375.6a6.4,6.4,0,0,1-2.362-.4,4.762,4.762,0,0,1-1.712-1.124,4.664,4.664,0,0,1-1.05-1.738,6.9,6.9,0,0,1-.349-2.262v-6.3a6.9,6.9,0,0,1,.349-2.261,4.656,4.656,0,0,1,1.05-1.738A4.762,4.762,0,0,1,373.24,17.5a6.4,6.4,0,0,1,2.362-.4h6.124v3.249h-6.1a2.351,2.351,0,0,0-1.7.5,2.348,2.348,0,0,0-.5,1.7Z" fill="#fff" />
		<path id="Trazado_145" data-name="Trazado 145" d="M402.822,34.448h-3.3V26.925a3.938,3.938,0,0,0-.074-.687,2.33,2.33,0,0,0-.326-.813,2.031,2.031,0,0,0-.724-.675,2.606,2.606,0,0,0-1.3-.275,2.487,2.487,0,0,0-1.8.675,2.355,2.355,0,0,0-.7,1.775v7.523h-3.3V26.925a3.856,3.856,0,0,0-.075-.687,2.412,2.412,0,0,0-.312-.813,1.92,1.92,0,0,0-.712-.675,2.6,2.6,0,0,0-1.3-.275,2.475,2.475,0,0,0-1.812.675,2.376,2.376,0,0,0-.687,1.775v7.523h-3.3V27a6.19,6.19,0,0,1,.411-2.275,5.488,5.488,0,0,1,1.163-1.825,5.264,5.264,0,0,1,1.824-1.212,6.325,6.325,0,0,1,2.4-.437,5.5,5.5,0,0,1,2.363.487A4.937,4.937,0,0,1,393,23.075a5.165,5.165,0,0,1,1.775-1.337,5.46,5.46,0,0,1,2.325-.487,6.463,6.463,0,0,1,2.412.424,5,5,0,0,1,2.925,3A6.713,6.713,0,0,1,402.822,27Z" fill="#fff" />
		<path id="Trazado_146" data-name="Trazado 146" d="M417.62,27.987a6.972,6.972,0,0,1-.49,2.62,7.184,7.184,0,0,1-1.314,2.145A5.988,5.988,0,0,1,413.86,34.2a5.642,5.642,0,0,1-2.4.524,4.982,4.982,0,0,1-3.759-1.512v6.961h-3.3V27.99a6.93,6.93,0,0,1,.488-2.6,6.7,6.7,0,0,1,1.362-2.147,6.267,6.267,0,0,1,2.088-1.447,7.087,7.087,0,0,1,5.349,0,6.281,6.281,0,0,1,2.087,1.446,6.7,6.7,0,0,1,1.361,2.146,6.926,6.926,0,0,1,.489,2.595m-3.3-.025a3.812,3.812,0,0,0-.264-1.432,3.644,3.644,0,0,0-.715-1.146,3.284,3.284,0,0,0-1.053-.76,3.066,3.066,0,0,0-1.28-.274,2.954,2.954,0,0,0-1.28.286,3.442,3.442,0,0,0-1.054.773,3.68,3.68,0,0,0-.715,1.146,3.772,3.772,0,0,0-.263,1.407,3.928,3.928,0,0,0,.263,1.444,3.785,3.785,0,0,0,.715,1.172,3.368,3.368,0,0,0,1.054.785,3.007,3.007,0,0,0,2.56,0,3.48,3.48,0,0,0,1.053-.772,3.617,3.617,0,0,0,.715-1.159,3.99,3.99,0,0,0,.264-1.47" fill="#fff" />
		<path id="Trazado_147" data-name="Trazado 147" d="M425.568,24.425a3.132,3.132,0,0,0-2.538.462A2.5,2.5,0,0,0,422.069,27v7.449h-3.3V27a6.5,6.5,0,0,1,.462-2.5,5.07,5.07,0,0,1,1.338-1.9,5.294,5.294,0,0,1,2.138-1.124,7.261,7.261,0,0,1,2.861-.15Z" fill="#fff" />
		<path id="Trazado_148" data-name="Trazado 148" d="M438.539,30.348a5.964,5.964,0,0,1-2.187,3.188,6.526,6.526,0,0,1-4.035,1.212,6.34,6.34,0,0,1-2.576-.525,6.7,6.7,0,0,1-4.023-6.2,6.811,6.811,0,0,1,.512-2.636,6.649,6.649,0,0,1,1.412-2.15,6.864,6.864,0,0,1,2.1-1.45,6.219,6.219,0,0,1,2.576-.537,6.708,6.708,0,0,1,2.2.362,6.058,6.058,0,0,1,1.887,1.05,6.238,6.238,0,0,1,1.424,1.687,6.777,6.777,0,0,1,.813,2.3l-9.1,3.824a3.545,3.545,0,0,0,1.2,1.012,3.31,3.31,0,0,0,1.55.363,3.526,3.526,0,0,0,1.55-.363,2.621,2.621,0,0,0,1.174-1.138Zm-3.7-5.048a3.077,3.077,0,0,0-1.1-.85,3.421,3.421,0,0,0-1.449-.3,3.315,3.315,0,0,0-2.438,1.038,3.828,3.828,0,0,0-.749,1.162,4.088,4.088,0,0,0-.313,1.5Z" fill="#fff" />
		<path id="Trazado_149" data-name="Trazado 149" d="M438.69,31.249a4.994,4.994,0,0,0,1.187-.038,1.574,1.574,0,0,0,.888-.437,1.935,1.935,0,0,0,.449-.8,6.746,6.746,0,0,0,.2-1.975q0-.624.051-1.3a7.267,7.267,0,0,1,.224-1.337,6.262,6.262,0,0,1,.5-1.288,4.158,4.158,0,0,1,.9-1.149,5.287,5.287,0,0,1,4.349-1.326v3.2a2.423,2.423,0,0,0-2.075.55,2.043,2.043,0,0,0-.237.288,1.663,1.663,0,0,0-.2.462,5.351,5.351,0,0,0-.149.75A8.564,8.564,0,0,0,444.713,28q0,.651-.049,1.338a7.917,7.917,0,0,1-.226,1.375,6.254,6.254,0,0,1-.5,1.324,4.322,4.322,0,0,1-.874,1.163,4.23,4.23,0,0,1-1.9,1.062,7.611,7.611,0,0,1-2.475.187Z" fill="#fff" />
		<path id="Trazado_150" data-name="Trazado 150" d="M460.947,34.289h-3.12V32.928a4.714,4.714,0,0,1-1.734,1.22,5.692,5.692,0,0,1-2.184.415,5.613,5.613,0,0,1-2.4-.523,6.179,6.179,0,0,1-1.96-1.432,6.936,6.936,0,0,1-1.809-4.722,7.082,7.082,0,0,1,.487-2.628,6.395,6.395,0,0,1,3.444-3.587,6.533,6.533,0,0,1,8.785,3.587,7.081,7.081,0,0,1,.487,2.628Zm-3.294-6.4a3.947,3.947,0,0,0-.263-1.442,3.793,3.793,0,0,0-.715-1.169,3.36,3.36,0,0,0-1.051-.784,2.956,2.956,0,0,0-1.279-.286,3.037,3.037,0,0,0-1.277.274,3.2,3.2,0,0,0-1.052.771,3.723,3.723,0,0,0-.714,1.169,3.957,3.957,0,0,0-.264,1.467,3.791,3.791,0,0,0,.264,1.431,3.614,3.614,0,0,0,.714,1.144,3.277,3.277,0,0,0,1.052.759,3.053,3.053,0,0,0,1.277.274,2.943,2.943,0,0,0,1.279-.287,3.447,3.447,0,0,0,1.051-.771,3.666,3.666,0,0,0,.715-1.143,3.793,3.793,0,0,0,.263-1.407" fill="#fff" />
		<path id="Trazado_151" data-name="Trazado 151" d="M358.406,38.368v4.667H363.1a4.7,4.7,0,0,0,4.69-4.7V38.3h0V33.635H363.1a4.7,4.7,0,0,0-4.692,4.7c0,.011,0,.022,0,.033Z" fill="#fff" />
	</g>
</svg>
