<svg xmlns="http://www.w3.org/2000/svg" viewBox="0 0 49.251 49.252">
	<g id="Grupo_237" data-name="Grupo 237" transform="translate(-8.3 -8.007)">
		<path id="Trazado_156" data-name="Trazado 156" d="M25.446,16.412l.678-.289a.5.5,0,0,0,.294-.248l-.028-.322-.216-.234a.48.48,0,0,0-.367.027l-.69.294.329.772" fill="#fff" />
		<path id="Trazado_157" data-name="Trazado 157" d="M14.894,25.184a.383.383,0,0,0-.533.263s-.23.616-.284.762c.133.051.623.234.757.284l.285-.762a.6.6,0,0,0,.042-.206.353.353,0,0,0-.267-.341" transform="translate(0 0)" fill="#fff" />
		<path id="Trazado_158" data-name="Trazado 158" d="M49.262,25.2a.7.7,0,0,0,.063.285c.191.437.651.535,1.26.268a1.2,1.2,0,0,0,.68-.593.656.656,0,0,0-.023-.514c-.191-.434-.649-.53-1.257-.264-.473.207-.723.5-.723.818" transform="translate(0 0)" fill="#fff" />
		<path id="Trazado_159" data-name="Trazado 159" d="M37.609,15.107a1.061,1.061,0,0,0,.428-.693,1.567,1.567,0,0,0,.046-.362.834.834,0,0,0-.115-.448.943.943,0,0,0-.618-.393l-.278-.066c-.041.167-.43,1.8-.47,1.965l.278.066a.938.938,0,0,0,.729-.069" fill="#fff" />
		<path id="Trazado_160" data-name="Trazado 160" d="M25.775,14.5a.327.327,0,0,0-.029-.132.284.284,0,0,0-.429-.157s-.542.232-.683.291c.051.121.188.443.24.563l.681-.29c.175-.075.22-.184.22-.275" fill="#fff" />
		<path id="Trazado_161" data-name="Trazado 161" d="M51.807,51.737V50.548H52.1l.3.95.29-.95h.286v1.189h-.181v-1l-.306,1h-.18l-.319-1.012v1.012Zm-.719,0V50.725H50.7v-.177h.972v.177h-.389v1.012Z" transform="translate(0 0)" fill="#fff" />
		<path id="Trazado_162" data-name="Trazado 162" d="M36.878,51.177a.251.251,0,0,0,.174-.317.257.257,0,0,0-.277-.235.863.863,0,0,0-.167.019c-.18.036-.36.075-.54.113-.069.014-.138.031-.218.048.04.2.076.377.117.573.231-.047.433-.09.635-.132a1.988,1.988,0,0,0,.276-.069" transform="translate(0 0)" fill="#fff" />
		<path id="Trazado_163" data-name="Trazado 163" d="M53.265,36.216a1.213,1.213,0,0,1-.818,1.028l-.089.032-.258-.632.09-.037a.583.583,0,0,0,.419-.5.639.639,0,0,0-.1-.495,1.2,1.2,0,0,0-.807-.41c-.655-.11-1.076.092-1.155.557a.641.641,0,0,0,.238.653l.074.068-.453.481-.07-.06a1.282,1.282,0,0,1-.446-1.253,1.5,1.5,0,0,1,1.925-1.117,1.86,1.86,0,0,1,1.235.694,1.307,1.307,0,0,1,.216.994m-.773,2.893-3.175-.994.169-.542.029-.093,3.174.992Zm-.7,1.823-2.423-1.118c-.073.156-.653,1.416-.653,1.416l-.6-.275.89-1.933.042-.089,3.021,1.394Zm-1.948,3.913-1.915,4.776-.035-.012a49.461,49.461,0,0,0-12.473-2.315,14.982,14.982,0,0,1-5.017,0,49.486,49.486,0,0,0-12.563,2.32l-.036.012-1.927-4.81.032-.016a26.9,26.9,0,0,1,4.459-1.524c.52-.137,1.108-.279,1.755-.419a14.871,14.871,0,1,1,21.586.021c.608.134,1.161.268,1.656.4a26.821,26.821,0,0,1,4.458,1.524l.033.016Zm-8.717,6.964a1.317,1.317,0,0,1-1.97-.2,2.032,2.032,0,0,1-.454-1.358,1.331,1.331,0,0,1,1.666-1.246,1.055,1.055,0,0,1,.47.279l-.217.234-.207.22a.464.464,0,0,1-.067-.037.653.653,0,0,0-1,.494,1.338,1.338,0,0,0,.48,1.167.65.65,0,0,0,1.063-.343,1.183,1.183,0,0,1,.044-.138l.586.084a1.113,1.113,0,0,1-.391.842m-3.493,1.123a1.648,1.648,0,0,1-.464.184c-.414.1-.832.177-1.249.263-.042.009-.088.013-.154.022-.119-.5-.21-1-.316-1.5s-.207-1.008-.314-1.528c.1-.025.2-.05.3-.071.374-.078.743-.164,1.12-.225a1.626,1.626,0,0,1,.548,0,.767.767,0,0,1,.45,1.172c-.017.022-.033.046-.056.078.017.015.023.026.034.029a.741.741,0,0,1,.524.708.858.858,0,0,1-.419.873m-3.5.054a1.064,1.064,0,0,1-.625.577,1.421,1.421,0,0,1-.86.048,1.238,1.238,0,0,1-.88-.809,2.044,2.044,0,0,1-.021-1.449,1.338,1.338,0,0,1,1.741-.839,1.03,1.03,0,0,1,.675.693l-.554.242a.627.627,0,0,1-.072-.092.646.646,0,0,0-1.087,0,1.291,1.291,0,0,0-.167.858,1.113,1.113,0,0,0,.183.535.711.711,0,0,0,.928.208.454.454,0,0,0,.227-.394h-.482v-.573h1.1a2.151,2.151,0,0,1-.107,1M29.16,51.2a1.107,1.107,0,0,0,.252.162c.166.081.338.15.506.228a1.69,1.69,0,0,1,.218.126.823.823,0,0,1,.368.948.883.883,0,0,1-.856.724,1.767,1.767,0,0,1-1.29-.378,1.13,1.13,0,0,1-.309-.4l.5-.317.1.117a1.071,1.071,0,0,0,.947.372.28.28,0,0,0,.259-.184.26.26,0,0,0-.079-.332,1.5,1.5,0,0,0-.258-.156c-.146-.07-.3-.129-.446-.2a2.328,2.328,0,0,1-.235-.129.76.76,0,0,1-.4-.743.845.845,0,0,1,.505-.756,1.472,1.472,0,0,1,1.782.594l-.5.345c-.043-.049-.078-.092-.116-.132a.877.877,0,0,0-.718-.3.431.431,0,0,0-.2.065.218.218,0,0,0-.029.348m-1.61-1.215c-.177.484-.357.967-.535,1.451a1.846,1.846,0,0,1-.379.649,1.086,1.086,0,0,1-1.054.337,1.384,1.384,0,0,1-.753-.384,1.158,1.158,0,0,1-.292-1.061,3.552,3.552,0,0,1,.166-.563c.15-.422.308-.841.464-1.262.023-.062.05-.123.081-.2l.565.2a.929.929,0,0,1-.025.116l-.547,1.482a1.141,1.141,0,0,0-.088.493.6.6,0,0,0,1.017.4,1.124,1.124,0,0,0,.266-.443l.54-1.467c.013-.037.029-.072.052-.129l.572.211c-.019.063-.031.116-.05.167M13.906,40.447l1.779-.668a.909.909,0,0,0,.546-.418.568.568,0,0,0-.006-.443c-.1-.252-.3-.557-.947-.312l-1.808.677-.234-.624,1.8-.674a1.245,1.245,0,0,1,1.816.708c.285.756-.052,1.379-.921,1.706l-1.791.672Zm-1.418-5.271a1.51,1.51,0,0,1,.318-1.14l.059-.078.532.409-.063.078a.857.857,0,0,0-.188.687.493.493,0,0,0,.149.337l.19.048c.13-.015.216-.067.316-.656s.249-1.11.9-1.188a.968.968,0,0,1,.746.181,1.344,1.344,0,0,1,.443.939,1.559,1.559,0,0,1-.392,1.245l-.063.068-.515-.415.066-.078a1.04,1.04,0,0,0,.247-.776c-.058-.483-.256-.522-.42-.5s-.249.126-.344.682c-.111.652-.233,1.085-.881,1.164A.9.9,0,0,1,12.913,36a1.215,1.215,0,0,1-.425-.824m3.271-2.38a.454.454,0,1,1-.459-.444.459.459,0,0,1,.459.444m-3.124-3.674a1.226,1.226,0,0,1,.818-1.027l.089-.032.256.626-.091.037a.583.583,0,0,0-.416.507.648.648,0,0,0,.1.5,1.206,1.206,0,0,0,.806.41c.655.111,1.076-.093,1.155-.561a.891.891,0,0,0,.014-.15.538.538,0,0,0-.1-.322.556.556,0,0,0-.33-.207c-.023.134-.083.492-.083.492l-.64-.109.2-1.168.455.077a1.4,1.4,0,0,1,.944.54,1.258,1.258,0,0,1,.194.958,1.3,1.3,0,0,1-.531.867,1.854,1.854,0,0,1-1.394.249,1.854,1.854,0,0,1-1.235-.694,1.271,1.271,0,0,1-.238-.748,1.477,1.477,0,0,1,.022-.245m3.318,8.291a.452.452,0,1,1,.328-.548.462.462,0,0,1-.328.548M13.762,25.224a.993.993,0,0,1,1.354-.672.954.954,0,0,1,.688.929V25.5l1.464-.156L17,26.057l-1.377.148-.192.512,1.161.434-.231.615L13.247,26.6Zm2.078-4.042.05-.085.56.336-.8,1.327.495.295c.079-.134.461-.77.461-.77l.56.336s-.381.637-.462.77l.679.407c.088-.149.829-1.384.829-1.384l.56.335L17.6,24.7l-2.853-1.71Zm2.206-2.749.064-.075.495.427s-.9,1.041-1.01,1.171l.437.377.586-.682.5.427-.586.68.6.517,1.053-1.223.495.426-1.488,1.728-2.52-2.171Zm1.528-1.426,2.172.762.138.053c-.066-.08-.233-.288-.233-.288L20.58,16.2l.431-.348.077-.061,2.082,2.594-.468.375-2.25-.766-.089-.033.232.285,1.076,1.341-.509.41L19.08,17.4Zm5.5-3.371a1.044,1.044,0,0,1,.8-.049.884.884,0,0,1,.473.5.81.81,0,0,1,.07.321.769.769,0,0,1-.143.358A.806.806,0,0,1,27,15.28a1.2,1.2,0,0,1,.107.476.871.871,0,0,1-.062.326,1.224,1.224,0,0,1-.707.632L25.1,17.24l-1.3-3.061Zm2.959-.979.4,1.857c.112.525.372.748.773.663.262-.057.594-.213.449-.891l-.4-1.889.555-.118.1-.021.4,1.879a1.516,1.516,0,0,1-.136,1.171,1.253,1.253,0,0,1-.833.522,1.216,1.216,0,0,1-.942-.134,1.545,1.545,0,0,1-.608-1.029l-.4-1.871Zm3.74-.552.1-.006.227,3.317-.665.045-.226-3.317Zm1.342.041.006-.1.665.037s-.142,2.482-.151,2.665l1.558.088-.039.657-2.222-.127Zm3.438.3.024-.1.925.221a1.51,1.51,0,0,1,1.191,2,1.525,1.525,0,0,1-1.963,1.239l-.928-.222Zm3.569,1.008.037-.091.619.243-1.214,3.095-.62-.243Zm1.888.666.549.312.089,2.3s0,.087,0,.147l.183-.323.847-1.487.566.324L42.6,18.29l-.52-.3-.115-2.375,0-.094c-.067.121-.18.319-.18.319l-.851,1.495-.568-.323,1.6-2.8Zm3.458,2.584a1.309,1.309,0,0,1,.963.327,1.231,1.231,0,0,1,.459,1.231l-.02.093-.667-.1.013-.1a.578.578,0,0,0-.22-.617.644.644,0,0,0-.479-.171,1.511,1.511,0,0,0-1.124,1.309.652.652,0,0,0,.242.449.618.618,0,0,0,.446.174.555.555,0,0,0,.346-.176c-.1-.089-.376-.324-.376-.324l.421-.493.9.772-.3.349a1.4,1.4,0,0,1-.95.532,1.256,1.256,0,0,1-.92-.329,1.3,1.3,0,0,1-.47-.9,2.1,2.1,0,0,1,1.737-2.023m1.582,5.4a1.861,1.861,0,0,1,.835-1.144,1.5,1.5,0,0,1,2.214.216,1.215,1.215,0,0,1,.119,1.308l-.042.085-.623-.277.039-.089a.58.58,0,0,0-.045-.653.644.644,0,0,0-.416-.289,1.2,1.2,0,0,0-.865.262c-.549.372-.714.811-.45,1.2a.643.643,0,0,0,.623.309l.1,0,.006.66-.093.007a1.364,1.364,0,0,1-1.4-1.592m4.8,2.271a1.305,1.305,0,0,1,.032,1.021,2.1,2.1,0,0,1-2.439,1.068,1.369,1.369,0,0,1-.76-1.734,1.85,1.85,0,0,1,1.029-.971,1.5,1.5,0,0,1,2.138.616m.919,2.578.143.651-1.856.407a.909.909,0,0,0-.6.337.563.563,0,0,0-.057.438.586.586,0,0,0,.241.395.866.866,0,0,0,.652.05l1.887-.414.142.651-1.877.412a1.248,1.248,0,0,1-1.7-.96c-.173-.79.248-1.358,1.155-1.557l1.773-.389Zm.722,3.965.014.63-1.93,1.259s-.074.045-.125.078l.369-.011,1.712-.035.014.652-3.325.069-.013-.6,1.981-1.317.079-.05-.366.009-1.721.036-.013-.653,3.225-.066ZM32.925,9.807A22.826,22.826,0,1,0,55.752,32.634,22.827,22.827,0,0,0,32.925,9.807" fill="#fff" />
		<path id="Trazado_164" data-name="Trazado 164" d="M36.957,51.743c-.285.047-.569.114-.879.177.058.271.109.522.166.787.307-.066.6-.119.884-.194a.4.4,0,0,0-.171-.77" transform="translate(0 0)" fill="#fff" />
		<path id="Trazado_165" data-name="Trazado 165" d="M22.735,30.33a.192.192,0,0,1,.083-.195c.057-.018.146.081.163.143a21.763,21.763,0,0,0,5.876,10.19c-.14-.323-.241-.648-.317-.835-.566-1.394-.029-2.8.568-4.421.327-.892-.72-1.28-1.266-.45-.026.041-.858,1.754-.895.259-.009-.33.534-2.822.489-3.537S27.01,29.7,26.383,30.47c-.5.605-.353.447-.639.824-.322.426-.446.535-.59.2a3.636,3.636,0,0,1,.115-1.258,8.283,8.283,0,0,0,.426-1.743.8.8,0,0,0-.957-.85c-.493.141-.689,1.036-.921.743s.24-1.794-.636-2.1c-1.353-.478-1.934.939-1.932,1.506,0,.519.113.682.026.972-.139.541-.6.019-.956.217s-.353.588-.269,1.1a3.5,3.5,0,0,0,1.2,1.937c.857.831.736.947.54,1.092-.61.456-1.484-.944-1.939.239-.648,1.681,2.17,2.548,2.4,2.657.6.289.935.948.111.753-.332-.077-.839-.319-1.237.124-1.049,1.17,1.687,3.21,3.5,3.586a20.418,20.418,0,0,1,4.129,1.383c.026.011.056.026.087.042q.375-.027.76-.051A21,21,0,0,1,22.735,30.33" transform="translate(0 0)" fill="#fff" />
		<path id="Trazado_166" data-name="Trazado 166" d="M32.778,34.839c0-3.868.093-8.081.093-8.081s.034-.161.142-.161.125.161.125.161.094,4.213.094,8.081c0,2.181-.03,4.927-.056,6.908.137,0,.273,0,.408,0a1.259,1.259,0,0,1,.485-.911c4.324-2.567,2.919-3.747,2.023-3.922a1.208,1.208,0,0,1-.172-2.278c2.176-1.224,3.289-5.595.586-4.639-.247.021-2.025.945-.457-1.735,1.483-2.681,1.026-5.069-.512-4.029-.4.272-1.545,1.481-1.317-.267.409-2.654-.248-3.6-1.027-3.773,0,0-.082-.015-.147-.021l-.07,0V20.17a1.664,1.664,0,0,0-.219.026c-.779.173-1.435,1.119-1.028,3.773.229,1.748-.913.539-1.315.267-1.539-1.04-1.995,1.348-.512,4.029,1.567,2.68-.211,1.756-.457,1.735-2.7-.956-1.591,3.415.586,4.639a1.208,1.208,0,0,1-.172,2.278c-.9.175-2.3,1.355,2.021,3.922a1.265,1.265,0,0,1,.488.91c.155,0,.309,0,.465,0-.025-1.981-.055-4.726-.055-6.906" transform="translate(0 0)" fill="#fff" />
		<path id="Trazado_167" data-name="Trazado 167" d="M43.7,36.005c.231-.109,3.048-.977,2.4-2.658-.454-1.182-1.33.218-1.939-.238-.2-.146-.318-.262.539-1.092a3.494,3.494,0,0,0,1.2-1.937c.085-.512.084-.9-.268-1.1s-.817.324-.957-.217c-.085-.29.025-.454.026-.972,0-.567-.579-1.984-1.932-1.506-.875.308-.41,1.817-.635,2.1s-.429-.6-.92-.743a.8.8,0,0,0-.958.85,8.153,8.153,0,0,0,.426,1.742,3.635,3.635,0,0,1,.115,1.258c-.145.335-.267.226-.591-.2-.286-.377-.135-.219-.637-.824-.627-.772-1.008.3-1.053,1.014s.5,3.206.489,3.537c-.038,1.495-.869-.218-.9-.259-.546-.83-1.594-.442-1.267.45.6,1.625,1.134,3.027.569,4.421-.076.186-.178.512-.316.835a21.763,21.763,0,0,0,5.87-10.231.18.18,0,0,1,.183-.1c.057.018.085.133.067.195a21.006,21.006,0,0,1-6.889,11.526c.252.016.5.033.747.053.043-.023.083-.044.117-.059a20.475,20.475,0,0,1,4.126-1.382c1.818-.376,4.554-2.416,3.505-3.586-.4-.443-.906-.2-1.237-.124-.824.194-.493-.464.111-.753" transform="translate(0 0)" fill="#fff" />
		<path id="Trazado_168" data-name="Trazado 168" d="M36.285,41.891l.043-.035c-.875-.056-1.789-.093-2.743-.106,0,.013,0,.026-.007.039.939.012,1.841.048,2.707.1" transform="translate(0 0)" fill="#fff" />
		<path id="Trazado_169" data-name="Trazado 169" d="M22.123,42.851l.03.032a48.734,48.734,0,0,1,6.759-.957l-.063-.033a49.122,49.122,0,0,0-6.726.958" transform="translate(0 0)" fill="#fff" />
		<path id="Trazado_170" data-name="Trazado 170" d="M32.874,41.745h-.041c0,.014,0,.026,0,.039h.04c.1,0,.2,0,.3,0,0-.014,0-.026,0-.04l-.3,0" transform="translate(0 0)" fill="#fff" />
		<path id="Trazado_171" data-name="Trazado 171" d="M43.677,42.906l.031-.033a49.154,49.154,0,0,0-6.633-.964l-.061.033a48.452,48.452,0,0,1,6.663.964" transform="translate(0 0)" fill="#fff" />
		<path id="Trazado_172" data-name="Trazado 172" d="M32.376,41.787l-.007-.039c-.959.009-1.881.041-2.761.094l.044.035q1.307-.076,2.724-.09" transform="translate(0 0)" fill="#fff" />
		<path id="Trazado_173" data-name="Trazado 173" d="M36.285,41.891c.246.015.49.032.73.051l.061-.033c-.246-.02-.495-.037-.748-.053l-.043.035" transform="translate(0 0)" fill="#fff" />
		<path id="Trazado_174" data-name="Trazado 174" d="M33.176,41.786c.134,0,.269,0,.4,0,0-.013.005-.026.007-.039-.135,0-.271,0-.407,0,0,.013,0,.026,0,.039" transform="translate(0 0)" fill="#fff" />
		<path id="Trazado_175" data-name="Trazado 175" d="M29.608,41.842c-.257.015-.51.033-.759.051l.063.033q.365-.027.74-.048l-.044-.036" transform="translate(0 0)" fill="#fff" />
		<path id="Trazado_176" data-name="Trazado 176" d="M32.834,41.784c0-.013,0-.026,0-.039-.156,0-.31,0-.465,0l.008.039c.152,0,.3,0,.458,0" transform="translate(0 0)" fill="#fff" />
		<path id="Trazado_177" data-name="Trazado 177" d="M32.865,47.181c-.9,0-1.781.028-2.636.077l.173.031c.8-.044,1.624-.069,2.463-.069.871,0,1.724.027,2.554.074.058-.01.117-.019.175-.03-.884-.053-1.8-.083-2.729-.083" transform="translate(0 0)" fill="#fff" />
		<path id="Trazado_178" data-name="Trazado 178" d="M17.825,49.572l-1.9-4.741a29.938,29.938,0,0,1,6.228-1.948l-.03-.032c-.648.14-1.235.283-1.756.42A26.632,26.632,0,0,0,15.908,44.8l-.033.015L17.8,49.622l.035-.013A49.5,49.5,0,0,1,30.4,47.289l-.174-.03a48.933,48.933,0,0,0-12.4,2.313" transform="translate(0 0)" fill="#fff" />
		<path id="Trazado_179" data-name="Trazado 179" d="M45.363,43.271c-.494-.13-1.046-.265-1.654-.4l-.031.033a29.86,29.86,0,0,1,6.127,1.925l-1.9,4.741a48.926,48.926,0,0,0-12.311-2.308c-.058.011-.116.021-.175.03a49.527,49.527,0,0,1,12.472,2.315l.036.013,1.914-4.776.014-.034-.033-.016a26.836,26.836,0,0,0-4.459-1.525" transform="translate(0 0)" fill="#fff" />
		<path id="Trazado_180" data-name="Trazado 180" d="M32.874,41.784h-.018l.018.039A50.965,50.965,0,0,1,43.645,42.94c.01-.012.022-.023.033-.034A50.608,50.608,0,0,0,32.874,41.784Z" transform="translate(0 0)" fill="#fff" />
		<path id="Trazado_181" data-name="Trazado 181" d="M32.856,41.823v-.039a50.654,50.654,0,0,0-10.7,1.1l.033.034a50.968,50.968,0,0,1,10.671-1.095" transform="translate(0 0)" fill="#fff" />
		<path id="Trazado_182" data-name="Trazado 182" d="M32.865,47.142c-.953,0-1.884.032-2.787.088l.151.029c.855-.05,1.735-.078,2.636-.078.933,0,1.845.03,2.729.083l.152-.029c-.933-.059-1.895-.093-2.881-.093" transform="translate(0 0)" fill="#fff" />
		<path id="Trazado_183" data-name="Trazado 183" d="M45.341,43.346a27.4,27.4,0,0,1,4.414,1.505l-1.872,4.672a49.8,49.8,0,0,0-12.138-2.288l-.151.029A48.939,48.939,0,0,1,47.9,49.572l1.9-4.741a29.829,29.829,0,0,0-6.128-1.925c-.01.011-.022.022-.033.033.625.136,1.192.274,1.7.407" transform="translate(0 0)" fill="#fff" />
		<path id="Trazado_184" data-name="Trazado 184" d="M17.848,49.523l-1.872-4.672a27.316,27.316,0,0,1,4.414-1.505c.532-.14,1.133-.285,1.8-.428l-.033-.034a30.01,30.01,0,0,0-6.228,1.947l1.9,4.741a48.946,48.946,0,0,1,12.4-2.313l-.151-.029a49.848,49.848,0,0,0-12.23,2.293" transform="translate(0 0)" fill="#fff" />
		<path id="Trazado_185" data-name="Trazado 185" d="M25.055,43.561s.382,2.306.411,2.476L27,45.825l.1.61-2.089.29-.1.012L24.4,43.65Z" transform="translate(0 0)" fill="#fff" />
		<path id="Trazado_186" data-name="Trazado 186" d="M29.524,43.051l2.079-.083.1,0,.028.613-1.52.061.027.541.883-.036.029.612s-.729.031-.883.036c.006.133.03.609.036.742l1.586-.064.03.613-2.242.09Z" transform="translate(0 0)" fill="#fff" />
		<path id="Trazado_187" data-name="Trazado 187" d="M34.436,42.951l2.078.1.1,0-.027.614L35.065,43.6c0,.12-.017.42-.022.541.153.006.882.044.882.044l-.026.612-.883-.044c-.006.133-.025.609-.031.742l1.586.079-.026.613-2.24-.112Z" transform="translate(0 0)" fill="#fff" />
		<path id="Trazado_188" data-name="Trazado 188" d="M41.306,45.249a.988.988,0,0,1-.364.684.956.956,0,0,1-.706.124l-.278-.04c.027-.16.281-1.721.307-1.88l.278.039a.926.926,0,0,1,.633.318.764.764,0,0,1,.147.411,1.369,1.369,0,0,1-.017.344m-.665-1.68-.921-.133-.015.092-.491,3,.923.133a1.5,1.5,0,0,0,1.823-1.322,1.42,1.42,0,0,0-1.319-1.774" transform="translate(0 0)" fill="#fff" />
		<path id="Trazado_189" data-name="Trazado 189" d="M32.926,56.332a23.7,23.7,0,1,1,23.7-23.7,23.7,23.7,0,0,1-23.7,23.7m0-48.325A24.626,24.626,0,1,0,57.551,32.632,24.626,24.626,0,0,0,32.926,8.007" fill="#fff" />
	</g>
</svg>
