<svg xmlns="http://www.w3.org/2000/svg" viewBox="0 0 30.097 37.314">
	<path id="book-alt" d="M122.106.049V5.474h4.5V37.259c-.287.015-.575.049-.858.049q-11,.006-22,0a7.143,7.143,0,0,1-7.19-6.922q-.106-12.459-.011-24.93c.019-3.243,2.325-5.4,5.709-5.433,4.481-.049,8.963-.015,13.448-.015,1.81,0,3.619,0,5.433,0,.287,0,.575.022.963.041Zm2.877,35.206V7.37h-2.9v20.1h-.985c-5.787,0-11.579-.034-17.366.037a8.159,8.159,0,0,0-3.153.754c-1.522.687-2.134,2.216-1.877,4.052a3.266,3.266,0,0,0,2.855,2.772,8.091,8.091,0,0,0,1.586.172q8.457.011,16.922,0ZM110.818,11.422c-1.746,0-3.493.011-5.243,0-.567,0-1.071.112-1.071.761s.507.787,1.071.784q5.239-.006,10.485,0c.582,0,1.138-.112,1.116-.825-.022-.66-.571-.72-1.112-.72C114.314,11.43,112.564,11.422,110.818,11.422Zm.015-2.522c1.746,0,3.493-.007,5.243,0,.549,0,1.086-.067,1.1-.731.011-.709-.549-.813-1.127-.813q-5.2.006-10.4,0c-.582,0-1.153.1-1.146.8s.6.754,1.172.75C107.4,8.892,109.113,8.9,110.833,8.9Zm0,6.586c-1.78,0-3.564,0-5.343,0-.537,0-.989.127-.981.75s.466.739,1,.739q5.345-.006,10.687,0c.534,0,.993-.134.985-.75s-.474-.739-1-.735C114.393,15.49,112.613,15.486,110.829,15.486ZM122.188,32.1h-18.7c-.239,0-.549.078-.694-.037-.287-.231-.638-.56-.668-.877-.022-.228.41-.526.687-.739.116-.09.343-.034.522-.034q8.715-.006,17.426,0c1.545,0,1.545.007,1.429,1.69Z" transform="translate(-96.512 0.003)" />
</svg>
