<svg xmlns="http://www.w3.org/2000/svg" viewBox="0 0 46.406 37.313">
	<path id="image" d="M95.272,157.1a1.335,1.335,0,0,0-2.233.072c-.323.456-.647.9-.965,1.347a1.409,1.409,0,0,1-2.3.123c-1.448-1.613-2.837-3.16-4.237-4.712a1.589,1.589,0,0,0-2.439.015l-2.116,2.433a1.67,1.67,0,0,1-2.238.507,1.207,1.207,0,0,0-1.729-.005c-.387.481-1.05.3-1.474-.41-.255-.425-.509-.85-.769-1.275-.217-.364-.451-.574-.52-.466a2.046,2.046,0,0,0-.117.195c-1.4,2.525-4.566,8.03-4.932,7.948l-.44,4.2h32.825c1.039,0,1.358-.635.711-1.419Zm-4.258-6.422a4.687,4.687,0,0,0,4.879-4.568,4.8,4.8,0,0,0-4.789-4.865,4.855,4.855,0,0,0-4.99,4.834A4.785,4.785,0,0,0,91.014,150.674ZM106.827,135.5H64.574a2.042,2.042,0,0,0-2.073,2v33.3a2.054,2.054,0,0,0,2.073,2.013h42.259a2.047,2.047,0,0,0,2.073-2.013V137.5A2.043,2.043,0,0,0,106.827,135.5Zm-.626,32.971a2.042,2.042,0,0,1-2.073,2H67.267a2.052,2.052,0,0,1-2.073-2V139.848a2.045,2.045,0,0,1,2.073-2h36.866a2.035,2.035,0,0,1,2.073,2v28.623Z" transform="translate(-62.5 -135.5)" fill="#fff" />
</svg>
