<svg xmlns="http://www.w3.org/2000/svg" viewBox="0 0 46.406 44.184">
	<path id="presentation" d="M62.5,83.5v30.686a3.56,3.56,0,0,0,3.463,3.654h39.48a3.56,3.56,0,0,0,3.463-3.654V83.5Zm43,27.467a3.033,3.033,0,0,1-2.954,3.113H68.864a3.036,3.036,0,0,1-2.954-3.113V90.628H105.5Zm-9.531,14.15-9.287-8.809a1.2,1.2,0,0,0-.912-.324l-.064-.005-.064.005a1.222,1.222,0,0,0-.912.324l-9.281,8.815a1.091,1.091,0,0,0,0,1.6,1.249,1.249,0,0,0,1.692,0l7.377-7.006v6.831a1.195,1.195,0,0,0,2.387,0v-6.831l7.377,7.006a1.249,1.249,0,0,0,1.692,0A1.11,1.11,0,0,0,95.966,125.117ZM77.133,102.291l7.913-1.045a7.19,7.19,0,0,0-1.745-3.7,8.084,8.084,0,0,0-10.978-.912,7.138,7.138,0,0,0-.96,10.422,8.074,8.074,0,0,0,10.867.992Zm11.2-4.19H101.99v1.411H88.328Zm.016,3.707h13.662v1.405H88.344v-1.405Zm0,3.7h8.7v1.405h-8.7Z" transform="translate(-62.5 -83.5)" />
</svg>
