<svg xmlns="http://www.w3.org/2000/svg" viewBox="0 0 47.321 37.313">
	<path id="bullhorn" d="M76.671,162.792a12.058,12.058,0,0,1-2.731.952c-1.909.265-3.845.335-5.77.487l-2.574.189c-.589.049-.741.222-.7.806.005.135.022.27.032.427-.6.043-1.13.076-1.666.124-.519.049-.687.254-.649.779q.292,4.032.595,8.058c.038.519.243.692.763.66.546-.038,1.087-.081,1.66-.119.016.189.022.33.032.465.049.53.157.617.692.573.86-.065,1.714-.135,2.574-.189.773-.049.795-.027,1.136.671q.746,1.533,1.5,3.066l5.678,11.622c.341.692.519.795,1.292.735,1.028-.076,2.055-.146,3.077-.227.546-.043.676-.254.438-.746-.3-.633-.622-1.26-.936-1.893q-2.774-5.638-5.543-11.27a1.257,1.257,0,0,1,.081-1.493,1.283,1.283,0,0,1,1.439-.395q8.85,2.2,17.717,4.375c.746.184,1.493.362,2.266.546-.633-8.577-1.26-17.105-1.887-25.666-.157.049-.287.087-.416.141Q85.713,159.136,76.671,162.792Zm23.26-7.544c-.146-.178-.352-.454-.525-.449-1.006.027-2.017.124-3.039.2.644,8.712,1.282,17.381,1.925,26.11.919-.07,1.79-.13,2.661-.195.741-.059.871-.211.817-.957l-1.79-24.336c-.016-.124.016-.292-.049-.373Zm5.511,16.029a1.245,1.245,0,0,0-1.417,2.044c1.06.79,2.147,1.541,3.229,2.309a1.744,1.744,0,0,0,.238.124,1.287,1.287,0,0,0,1.53-.644,1.256,1.256,0,0,0-.346-1.536C107.61,172.791,106.539,172.018,105.442,171.277Zm-2.039-7.485a1.2,1.2,0,0,0,1.558-.173c.919-.865,1.822-1.747,2.72-2.634a1.721,1.721,0,0,0,.292-.443,1.289,1.289,0,0,0-.481-1.536,1.241,1.241,0,0,0-1.525.151c-.93.876-1.844,1.768-2.753,2.666a1.335,1.335,0,0,0-.308.481A1.218,1.218,0,0,0,103.4,163.792Zm5.311,2.06q-2.077.089-4.143.319a1.142,1.142,0,0,0-.968,1.211,1.22,1.22,0,0,0,.973,1.211.725.725,0,0,0,.195.038c1.384-.1,2.769-.178,4.148-.324a1.19,1.19,0,0,0,1.006-1.292A1.222,1.222,0,0,0,108.713,165.853Z" transform="translate(-62.605 -154.799)" />
</svg>
