<svg xmlns="http://www.w3.org/2000/svg" xmlns:xlink="http://www.w3.org/1999/xlink" viewBox="0 0 1185.24 1360.05">
	<defs>
		<style>
			.cls-1{fill:url(#Degradado_sin_nombre);}.cls-2{fill:none;}.cls-3{clip-path:url(#clip-path);}.cls-4{mask:url(#mask);}.cls-5{clip-path:url(#clip-path-2);}.cls-6{fill:#fff;}.cls-7{fill:#737373;}.cls-8{filter:url(#luminosity-noclip);}
		</style>
		<linearGradient id="Degradado_sin_nombre" x1="-27.26" y1="1367.43" x2="-24.5" y2="1367.43" gradientTransform="matrix(103.15, 0, 0, -103.15, 3429.2, 141730.19)" gradientUnits="userSpaceOnUse">
			<stop offset="0" stop-color="#fff" />
			<stop offset="1" />
		</linearGradient>
		<clipPath id="clip-path" transform="translate(0 0)">
			<rect class="cls-2" width="1185.24" height="1360.05" />
		</clipPath>
		<filter id="luminosity-noclip" x="-46.88" y="-35.85" width="1279.01" height="1398.66" filterUnits="userSpaceOnUse" color-interpolation-filters="sRGB">
			<feFlood flood-color="#fff" result="bg" />
			<feBlend in="SourceGraphic" in2="bg" />
		</filter>
		<mask id="mask" x="-46.88" y="-35.85" width="1279.01" height="1398.66" maskUnits="userSpaceOnUse">
			<g class="cls-8">
				<g transform="translate(0 0)">
					<rect class="cls-1" width="1185.24" height="1360.05" />
				</g>
			</g>
		</mask>
		<clipPath id="clip-path-2" transform="translate(0 0)">
			<rect class="cls-2" x="-46.88" y="-35.85" width="1279.01" height="1398.66" />
		</clipPath>
	</defs>
	<g id="Capa_2" data-name="Capa 2">
		<g id="Capa_1-2" data-name="Capa 1">
			<g class="cls-3">
				<g class="cls-4">
					<g class="cls-5">
						<path class="cls-6" d="M368.43,449.18,370,473.52l1.5,24.34,3,48.67,5.76,97.37c1.95,32.45,3.74,64.92,5.61,97.38l5.43,97.38,5.27,97.4,2.57,48.7,2.52,48.7,4.94,97.41,2.34,48.72,1.18,24.35,1.11,24.36L409.66,1204l-1.5-24.34-3-48.68-5.76-97.37-2.83-48.68-2.78-48.69-5.43-97.39-5.26-97.39C381.4,709,379.63,676.5,378,644l-4.94-97.41-2.35-48.71-1.17-24.36Z" transform="translate(0 0)" />
						<path class="cls-6" d="M336.7,449.18l1.56,24.43,1.51,24.44,3,48.87,5.78,97.76c2,32.58,3.76,65.17,5.63,97.76l5.46,97.78L364.94,938l2.58,48.89,2.53,48.9,5,97.8,2.35,48.91,1.18,24.45,1.12,24.46L378.1,1207l-1.51-24.43-3-48.87-5.78-97.76L365,987l-2.78-48.88-5.45-97.77-5.29-97.79c-1.71-32.6-3.48-65.19-5.11-97.79l-5-97.8L339,498.09l-1.18-24.45Z" transform="translate(0 0)" />
						<path class="cls-6" d="M330.4,449.18,332,473.52l1.51,24.34,3,48.67,5.75,97.37c2,32.45,3.75,64.92,5.62,97.38l5.43,97.38,5.27,97.4,2.57,48.7,2.52,48.7,4.94,97.41,2.34,48.72,1.17,24.35,1.12,24.36L371.63,1204l-1.5-24.34-3-48.68-5.76-97.37-2.83-48.68-2.78-48.69-5.42-97.39-5.27-97.39C343.36,709,341.59,676.5,340,644L335,546.61l-2.34-48.71-1.18-24.36Z" transform="translate(0 0)" />
						<path class="cls-6" d="M33.67,423.36l1.39,16.93,1.34,16.94,2.66,33.87,5.08,67.77c1.72,22.59,3.29,45.19,4.93,67.78l4.75,67.79,4.59,67.81,2.23,33.9,1.12,17,1.06,17,4.27,67.83,2,33.92,1,17,1,17L69.65,948.8l-1.33-16.94L65.65,898l-5.08-67.77-1.27-17-1.22-16.94-2.44-33.89-4.75-67.8-4.58-67.8c-1.48-22.6-3-45.2-4.41-67.81L37.63,491.2l-2-33.92-1-17Z" transform="translate(0 0)" />
						<path class="cls-6" d="M15,427.38l1.39,16.94,1.33,16.94,2.67,33.87,5.07,67.77c1.72,22.59,3.29,45.19,4.93,67.78l4.76,67.79,4.59,67.8L42,800.18l1.11,17,1.07,17,4.26,67.83,2,33.91,1,17,1,17L51,952.83l-1.34-16.94L47,902l-5.08-67.76-1.27-17L39.4,800.36,37,766.46l-4.75-67.79-4.59-67.8c-1.47-22.61-3-45.2-4.41-67.81L19,495.23l-2-33.92-1-17Z" transform="translate(0 0)" />
						<path class="cls-6" d="M7,422.63l1.38,16.94,1.34,16.94,2.66,33.87,5.08,67.77c1.72,22.59,3.29,45.19,4.93,67.78l4.75,67.79,4.59,67.8,2.23,33.91,1.12,17,1.06,17,4.27,67.82,2,33.93,1,16.95,1,17-1.39-16.93L41.6,931.14l-2.67-33.88-5.08-67.77-1.27-16.94-1.22-16.94-2.44-33.9-4.74-67.79-4.59-67.8c-1.48-22.61-3-45.2-4.41-67.82l-4.27-67.82-2-33.92-1-17Z" transform="translate(0 0)" />
						<path class="cls-6" d="M150.6,998.46c-8.72,2.59-17.51,4.89-26.32,7.09-4.4,1.13-8.82,2.16-13.23,3.23l-13.27,3.07-13.3,2.92c-4.45.91-8.88,1.89-13.34,2.75-8.9,1.79-17.83,3.47-26.82,4.87,8.72-2.59,17.51-4.9,26.32-7.1,4.4-1.13,8.82-2.15,13.23-3.23L97.14,1009l13.3-2.91c4.45-.92,8.89-1.88,13.34-2.75,8.91-1.78,17.83-3.47,26.82-4.87" transform="translate(0 0)" />
						<path class="cls-6" d="M111.33,963.1c-5.67,1.75-11.4,3.22-17.15,4.59s-11.52,2.62-17.31,3.78-11.6,2.23-17.43,3.16-11.69,1.79-17.6,2.35c5.67-1.76,11.4-3.23,17.15-4.6s11.52-2.62,17.31-3.78,11.6-2.22,17.43-3.15,11.69-1.79,17.6-2.35" transform="translate(0 0)" />
						<path class="cls-6" d="M41.84,955a21.16,21.16,0,0,1-4.35,2A34.31,34.31,0,0,1,33,958.28a32.59,32.59,0,0,1-4.63.61,20,20,0,0,1-4.8-.22,20.68,20.68,0,0,1,4.35-2,33.76,33.76,0,0,1,4.51-1.22,34.23,34.23,0,0,1,4.64-.6,21.08,21.08,0,0,1,4.8.21" transform="translate(0 0)" />
						<path class="cls-6" d="M87.18,945.51a21.16,21.16,0,0,1-4.35,2,35.94,35.94,0,0,1-4.52,1.22,34.1,34.1,0,0,1-4.63.61,20.51,20.51,0,0,1-4.8-.22,20.2,20.2,0,0,1,4.35-2,32.32,32.32,0,0,1,4.51-1.22,35.91,35.91,0,0,1,4.64-.61,21.09,21.09,0,0,1,4.8.22" transform="translate(0 0)" />
						<path class="cls-6" d="M539.45,1282.62c-12.28,4.49-24.66,8.7-37.06,12.82-6.2,2.08-12.42,4.07-18.63,6.1l-18.68,6-18.73,5.79c-6.26,1.87-12.5,3.81-18.78,5.63-12.53,3.71-25.09,7.31-37.74,10.64,12.28-4.49,24.66-8.71,37.06-12.82,6.19-2.09,12.42-4.07,18.63-6.1l18.68-5.94,18.73-5.79c6.26-1.88,12.5-3.81,18.78-5.63,12.53-3.71,25.09-7.32,37.74-10.65" transform="translate(0 0)" />
						<path class="cls-6" d="M468.15,1230.66c-6.66,2.81-13.42,5.35-20.2,7.78s-13.61,4.77-20.46,7-13.73,4.38-20.65,6.39-13.88,4-20.92,5.61c6.67-2.81,13.42-5.35,20.21-7.78s13.6-4.77,20.45-7,13.74-4.37,20.66-6.38,13.87-4,20.91-5.62" transform="translate(0 0)" />
						<path class="cls-6" d="M441.89,1210.36a52.63,52.63,0,0,1-7,3.2q-3.56,1.35-7.2,2.4t-7.37,1.79a51.45,51.45,0,0,1-7.6,1,51.44,51.44,0,0,1,7-3.21q3.55-1.35,7.2-2.39t7.37-1.79a51.45,51.45,0,0,1,7.6-1" transform="translate(0 0)" />
						<path class="cls-6" d="M377,1230.66a34.5,34.5,0,0,1-5.6,2.81,57.92,57.92,0,0,1-5.82,2,55.23,55.23,0,0,1-6,1.41,34.54,34.54,0,0,1-6.23.59,34.5,34.5,0,0,1,5.6-2.81,57.25,57.25,0,0,1,5.83-2,58,58,0,0,1,6-1.4,35.56,35.56,0,0,1,6.23-.6" transform="translate(0 0)" />
						<path class="cls-6" d="M27.93,1007.77c-.87-3.89-1.42-7.79-1.91-11.7s-.83-7.82-1.09-11.75-.41-7.86-.45-11.79,0-7.89.38-11.85c.87,3.88,1.43,7.79,1.92,11.7s.82,7.83,1.08,11.75.41,7.85.45,11.79,0,7.89-.38,11.85" transform="translate(0 0)" />
						<path class="cls-6" d="M43.2,1021a103,103,0,0,1-1.67-10.66c-.38-3.56-.65-7.13-.83-10.7s-.24-7.15-.2-10.74a100,100,0,0,1,.64-10.77,103,103,0,0,1,1.66,10.66c.39,3.56.66,7.13.83,10.7s.24,7.15.2,10.74A105.44,105.44,0,0,1,43.2,1021" transform="translate(0 0)" />
						<path class="cls-6" d="M28.59,1009.05a19.67,19.67,0,0,1,4.1,2.31,29.91,29.91,0,0,1,3.53,2.9,31.89,31.89,0,0,1,3.1,3.36,19.64,19.64,0,0,1,2.52,4,20.18,20.18,0,0,1-4.11-2.3,33.58,33.58,0,0,1-6.62-6.28,20.47,20.47,0,0,1-2.52-4" transform="translate(0 0)" />
						<path class="cls-6" d="M23.54,958.67a37.22,37.22,0,0,1,5.36,3.51,62.65,62.65,0,0,1,4.8,4.11,60.86,60.86,0,0,1,4.36,4.57A37.31,37.31,0,0,1,41.84,976a35.92,35.92,0,0,1-5.37-3.5,60.65,60.65,0,0,1-4.79-4.11c-1.52-1.45-3-3-4.36-4.57a35.84,35.84,0,0,1-3.78-5.18" transform="translate(0 0)" />
						<path class="cls-6" d="M355.73,1297.1c-.81-4.95-1.32-9.9-1.74-14.86s-.73-9.93-.93-14.9-.32-9.94-.29-14.92.13-10,.54-15c.81,4.94,1.33,9.9,1.75,14.86s.72,9.92.93,14.89.31,10,.27,14.92-.12,10-.53,15" transform="translate(0 0)" />
						<path class="cls-6" d="M387.55,1330.8c-.74-6.1-1.19-12.2-1.54-18.31s-.59-12.22-.74-18.33-.18-12.23-.08-18.35.26-12.23.73-18.36c.75,6.1,1.2,12.2,1.56,18.31s.59,12.22.72,18.33.18,12.23.08,18.35-.26,12.24-.73,18.36" transform="translate(0 0)" />
						<path class="cls-6" d="M354.68,1300.17c3.16,2.11,6.1,4.44,9,6.82s5.7,4.87,8.44,7.42,5.41,5.18,8,7.89a111.86,111.86,0,0,1,7.43,8.5,111.75,111.75,0,0,1-9-6.81c-2.89-2.4-5.69-4.88-8.43-7.43s-5.41-5.18-8-7.89a112,112,0,0,1-7.44-8.5" transform="translate(0 0)" />
						<path class="cls-6" d="M352.13,1237.47a76.91,76.91,0,0,1,8.38,4q4.07,2.22,7.94,4.73t7.59,5.26a73.2,73.2,0,0,1,7.14,6,75.26,75.26,0,0,1-8.39-4q-4.05-2.22-7.93-4.73c-2.58-1.66-5.12-3.41-7.59-5.26a77.2,77.2,0,0,1-7.14-6" transform="translate(0 0)" />
						<path class="cls-6" d="M15,424.79a19.62,19.62,0,0,1,4.38-1.51,32.53,32.53,0,0,1,8.94-.72,19.92,19.92,0,0,1,4.56.79,18.9,18.9,0,0,1-4.37,1.51,32.31,32.31,0,0,1-4.45.67,30.7,30.7,0,0,1-4.5,0,19.46,19.46,0,0,1-4.56-.78" transform="translate(0 0)" />
						<path class="cls-6" d="M336.7,449.9a57.19,57.19,0,0,1,7.87-1.6q3.94-.54,7.91-.76c2.65-.15,5.3-.2,7.95-.13a55.65,55.65,0,0,1,8,.7,55.74,55.74,0,0,1-7.87,1.6q-3.94.54-7.91.76c-2.65.14-5.3.19-7.95.13a58.67,58.67,0,0,1-8-.7" transform="translate(0 0)" />
						<path class="cls-6" d="M52,970.24A22.72,22.72,0,0,1,56.49,968a39,39,0,0,1,4.69-1.43,35.56,35.56,0,0,1,4.83-.82,22.25,22.25,0,0,1,5,0,22.8,22.8,0,0,1-4.5,2.25A38.38,38.38,0,0,1,57,970.23a23.39,23.39,0,0,1-5,0" transform="translate(0 0)" />
						<path class="cls-6" d="M381,1236.43a56.29,56.29,0,0,1,7.25-3.14c2.46-.88,5-1.66,7.47-2.34s5.06-1.26,7.63-1.73a55.16,55.16,0,0,1,7.85-.92,54.43,54.43,0,0,1-7.25,3.15q-3.69,1.32-7.47,2.33c-2.51.68-5.06,1.26-7.63,1.73a55,55,0,0,1-7.85.92" transform="translate(0 0)" />
						<path class="cls-6" d="M8.32,423.44a4.51,4.51,0,0,1,1.88-.81,4.58,4.58,0,0,1,1.73,0,4.84,4.84,0,0,1,1.61.62A4.44,4.44,0,0,1,15,424.7a4.54,4.54,0,0,1-1.88.82,4.78,4.78,0,0,1-1.73,0,4.58,4.58,0,0,1-1.61-.63,4.5,4.5,0,0,1-1.45-1.44" transform="translate(0 0)" />
						<path class="cls-6" d="M44.32,963.1a7.84,7.84,0,0,1,2.74.78,11,11,0,0,1,2.21,1.42,10.58,10.58,0,0,1,1.81,1.91,7.73,7.73,0,0,1,1.28,2.55,7.75,7.75,0,0,1-2.75-.78,10.82,10.82,0,0,1-2.21-1.42,11.27,11.27,0,0,1-1.8-1.91,7.73,7.73,0,0,1-1.28-2.55" transform="translate(0 0)" />
						<path class="cls-6" d="M373,1228.75a5.59,5.59,0,0,1,2.34.44,7.14,7.14,0,0,1,3.22,2.66,5.73,5.73,0,0,1,.86,2.22,6,6,0,0,1-2.34-.44,7,7,0,0,1-3.2-2.67,5.76,5.76,0,0,1-.88-2.21" transform="translate(0 0)" />
						<path class="cls-6" d="M761.74,362.65c10.09-1.2,20.2-2.12,30.31-2.93,5.06-.44,10.12-.77,15.17-1.15l15.19-1,15.19-.82c5.07-.22,10.14-.49,15.21-.66,10.14-.38,20.28-.66,30.44-.65-10.09,1.21-20.19,2.12-30.31,2.94-5.05.43-10.11.75-15.17,1.13l-15.19,1-15.19.82c-5.07.22-10.13.49-15.2.65-10.15.38-20.29.67-30.45.66" transform="translate(0 0)" />
						<path class="cls-6" d="M883.25,359.06,884.71,382l1.41,22.92,2.81,45.84,5.36,91.69c1.82,30.57,3.48,61.14,5.22,91.71l5,91.71,4.88,91.73,2.38,45.87,2.32,45.86,4.55,91.74,2.15,45.88,1.08,22.94,1,22.94-1.46-22.92-1.4-22.92-2.81-45.84-5.37-91.7-2.64-45.85-2.58-45.85-5-91.72-4.88-91.72c-1.57-30.58-3.21-61.15-4.7-91.73l-4.55-91.75-2.15-45.87L884.27,382Z" transform="translate(0 0)" />
						<path class="cls-6" d="M741,1216.28l13.76-5.17,13.79-5.13,27.55-10.24,55.21-20.25c18.39-6.78,36.84-13.41,55.26-20.12l55.31-19.94,55.38-19.8,27.7-9.83,13.86-4.92,13.87-4.87,55.48-19.48,27.78-9.63,13.9-4.81,13.91-4.76-13.76,5.18-13.78,5.13-27.57,10.24-55.2,20.25-13.8,5.07-13.82,5-27.64,10-55.32,19.94L907.52,1158c-18.47,6.54-36.93,13.15-55.43,19.62l-55.48,19.49-27.79,9.62-13.89,4.81Z" transform="translate(0 0)" />
						<path class="cls-6" d="M1130,1023.5c4.29-2.08,8.67-3.88,13.07-5.58s8.86-3.3,13.33-4.8,9-2.92,13.54-4.2,9.13-2.49,13.8-3.41c-4.29,2.08-8.66,3.88-13.07,5.58s-8.86,3.31-13.33,4.8-9,2.91-13.54,4.19-9.13,2.49-13.8,3.42" transform="translate(0 0)" />
						<path class="cls-6" d="M1025.47,1058.49a68.47,68.47,0,0,1,8-3.72q4.05-1.62,8.21-2.93t8.41-2.33a67,67,0,0,1,8.66-1.53,68.55,68.55,0,0,1-8,3.73q-4.05,1.62-8.21,2.92c-2.77.88-5.58,1.66-8.41,2.33a68.74,68.74,0,0,1-8.66,1.53" transform="translate(0 0)" />
						<path class="cls-6" d="M922.92,1092.81a7.76,7.76,0,0,1,2.09-1.91,11.24,11.24,0,0,1,2.35-1.12,10.69,10.69,0,0,1,2.55-.52,7.71,7.71,0,0,1,2.81.27,7.77,7.77,0,0,1-2.08,1.92,10.86,10.86,0,0,1-4.9,1.63,7.55,7.55,0,0,1-2.82-.27" transform="translate(0 0)" />
						<path class="cls-6" d="M1183.78,1051.42a92.54,92.54,0,0,1-1.15-10.17c-.22-3.39-.32-6.78-.32-10.17s.1-6.79.31-10.18a92.57,92.57,0,0,1,1.16-10.17,92.54,92.54,0,0,1,1.15,10.17c.22,3.39.31,6.79.31,10.18s-.1,6.78-.32,10.17a92.51,92.51,0,0,1-1.14,10.17" transform="translate(0 0)" />
						<path class="cls-6" d="M1148.65,993.34a36.38,36.38,0,0,1,4.56.17c1.5.13,3,.32,4.49.52,3,.43,5.92,1,8.85,1.62s5.83,1.39,8.71,2.26a71.21,71.21,0,0,1,8.52,3.08,72.67,72.67,0,0,1-9-.83c-3-.45-5.92-1-8.85-1.65s-5.82-1.38-8.7-2.23-5.73-1.83-8.56-2.94" transform="translate(0 0)" />
						<path class="cls-6" d="M1119.38,824.34l-.12-13.5-.07-13.5-.13-27v-54c0-18,.09-36,.14-54l.32-54,.47-54c.22-18,.37-36,.64-54s.52-36,.83-54l.53-27,.26-13.5.32-13.5.12,13.51.07,13.5.14,27q0,27,0,54c0,18-.1,36-.15,54l-.32,54-.48,54c-.22,18-.37,36-.66,54l-.81,54-.52,27-.27,13.5Z" transform="translate(0 0)" />
						<path class="cls-6" d="M1136.29,1005.51l-.16-19.16-.11-19.16-.22-38.33-.19-76.65c-.1-25.55,0-51.09,0-76.64l.14-76.65.29-76.65.22-38.32.26-38.32.63-76.65.43-38.32.23-19.17.27-19.15.17,19.16.11,19.16.22,38.32.2,76.65,0,38.33v38.32l-.14,76.65-.3,76.65c-.16,25.54-.24,51.09-.48,76.64l-.62,76.65-.44,38.32-.22,19.16Z" transform="translate(0 0)" />
						<path class="cls-6" d="M1149.86,1000l-.16-19-.12-19-.22-38-.19-76c-.09-25.32,0-50.63,0-75.95l.14-76,.29-75.95.21-38,.27-38,.62-76,.44-38,.23-19,.27-19,.17,19,.11,19,.22,38,.19,75.95,0,38v38l-.14,76-.29,76c-.16,25.31-.24,50.63-.48,75.95l-.63,76-.43,38-.22,19Z" transform="translate(0 0)" />
						<path class="cls-6" d="M1150,1000a11.47,11.47,0,0,1-2.54,2.36,17.64,17.64,0,0,1-2.88,1.59,16.51,16.51,0,0,1-3.12,1,11.18,11.18,0,0,1-3.46.25,10.8,10.8,0,0,1,2.54-2.36,16.31,16.31,0,0,1,2.88-1.6,17.23,17.23,0,0,1,3.12-1,11.21,11.21,0,0,1,3.46-.25" transform="translate(0 0)" />
						<path class="cls-6" d="M1136,1005.16a7.38,7.38,0,0,1-2.76.5,10.37,10.37,0,0,1-2.56-.3,10.8,10.8,0,0,1-2.4-.92,7.5,7.5,0,0,1-2.2-1.74,7.54,7.54,0,0,1,2.75-.5,10.44,10.44,0,0,1,5,1.24,7.54,7.54,0,0,1,2.2,1.72" transform="translate(0 0)" />
						<path class="cls-6" d="M1150,392.33a9.51,9.51,0,0,1-3,1.15,13.91,13.91,0,0,1-3,.32,14.55,14.55,0,0,1-3-.31,9.79,9.79,0,0,1-3-1.16,9.75,9.75,0,0,1,3-1.15,14.55,14.55,0,0,1,3-.31,13.91,13.91,0,0,1,3,.32,9.72,9.72,0,0,1,3,1.14" transform="translate(0 0)" />
						<path class="cls-6" d="M1138,392.33a18.16,18.16,0,0,1-4.2,1.52,31.24,31.24,0,0,1-4.28.68,28.29,28.29,0,0,1-4.32.05,17.71,17.71,0,0,1-4.41-.78,17.74,17.74,0,0,1,4.21-1.51,28.31,28.31,0,0,1,4.27-.68,29.79,29.79,0,0,1,4.33-.05,18,18,0,0,1,4.4.77" transform="translate(0 0)" />
						<path class="cls-6" d="M994.3,481.17c-.6-6.57-.92-13.14-1.14-19.71s-.32-13.15-.32-19.72.09-13.14.32-19.72.53-13.14,1.14-19.71c.61,6.57.93,13.14,1.15,19.71s.32,13.15.32,19.72-.09,13.15-.33,19.72-.53,13.14-1.14,19.71" transform="translate(0 0)" />
						<path class="cls-6" d="M1030.16,1041.67l-.71-19.93-.65-19.93L1027.51,962l-2.34-79.72c-.81-26.58-1.47-53.15-2.2-79.73l-2-79.72-1.86-79.73-.86-39.87-.81-39.87-1.53-79.74-.63-39.87-.32-19.93-.26-19.94.7,19.92.65,19.93,1.3,39.86,2.34,79.72,1.12,39.86,1.07,39.86,2,79.73,1.85,79.73c.56,26.58,1.19,53.15,1.67,79.73l1.53,79.74.63,39.87.32,19.94Z" transform="translate(0 0)" />
						<path class="cls-6" d="M1043.72,1035.86l-.85-19.79-.81-19.79-1.6-39.59-3-79.18c-1-26.39-1.88-52.79-2.81-79.18l-2.64-79.2-2.47-79.2-1.18-39.6-1.12-39.6-2.14-79.2-1-39.61-.47-19.81-.42-19.8.86,19.79.81,19.79,1.6,39.59,3,79.18,1.43,39.59,1.38,39.6L1035,719l2.47,79.19c.77,26.41,1.61,52.8,2.3,79.21l2.14,79.21.95,39.61.47,19.8Z" transform="translate(0 0)" />
						<path class="cls-6" d="M1043.89,1035.86a11.42,11.42,0,0,1-2.52,2.41,17.23,17.23,0,0,1-6,2.72,10.91,10.91,0,0,1-3.47.31,11,11,0,0,1,2.52-2.41,17.45,17.45,0,0,1,6-2.71,11.2,11.2,0,0,1,3.47-.32" transform="translate(0 0)" />
						<path class="cls-6" d="M1029.81,1041.3a5.56,5.56,0,0,1-2.26.61,7,7,0,0,1-2-.21,6.34,6.34,0,0,1-1.9-.81,5.63,5.63,0,0,1-1.69-1.63,5.53,5.53,0,0,1,2.26-.6,6.69,6.69,0,0,1,2.06.2,6.57,6.57,0,0,1,1.89.82,5.6,5.6,0,0,1,1.69,1.62" transform="translate(0 0)" />
						<path class="cls-6" d="M1023.63,403a6.15,6.15,0,0,1-2.25,1.07,7.88,7.88,0,0,1-4.41-.15,6.28,6.28,0,0,1-2.16-1.23,6.1,6.1,0,0,1,2.25-1.08,8,8,0,0,1,4.4.16,6.14,6.14,0,0,1,2.17,1.23" transform="translate(0 0)" />
						<path class="cls-6" d="M1014.81,402.67a24.81,24.81,0,0,1-5.1,1.25,42.6,42.6,0,0,1-10.26.2,24.29,24.29,0,0,1-5.15-1.05,24.9,24.9,0,0,1,5.11-1.25,42.53,42.53,0,0,1,10.25-.2,24.17,24.17,0,0,1,5.15,1.05" transform="translate(0 0)" />
						<path class="cls-7" d="M15,886.62c-1.65-35.71-2.91-71.42-4-107.13-.59-17.86-1-35.72-1.55-53.58L8.09,672.33,7,618.75c-.29-17.87-.65-35.73-.87-53.6-.51-35.72-.87-71.46-.82-107.2,1.66,35.71,2.92,71.42,4,107.13.6,17.86,1,35.72,1.56,53.58l1.32,53.58,1.1,53.59c.29,17.86.65,35.72.87,53.59.51,35.72.87,71.46.83,107.2" transform="translate(0 0)" />
						<path class="cls-7" d="M5.29,415.24C4,395.31,3.19,375.37,2.48,355.42c-.39-10-.64-19.94-.95-29.91L.81,295.59l-.5-29.93c-.09-10-.25-20-.26-29.92-.11-20-.07-39.92.38-59.88,1.26,19.93,2.11,39.87,2.82,59.81.39,10,.63,19.94,1,29.92l.71,29.92.5,29.92c.09,10,.25,19.95.26,29.93.1,19.95.06,39.91-.38,59.88" transform="translate(0 0)" />
						<path class="cls-7" d="M677.28,0,656.36,5.79l-20.94,5.72L593.53,23q-41.91,11.34-83.84,22.56c-28,7.51-55.94,14.88-83.92,22.31l-84,22.09-84,21.88c-28,7.22-56,14.51-84.09,21.65l-42.06,10.75L89.54,154.85,47.42,165.39l-21,5.27-21.08,5.2,20.92-5.8,20.94-5.72L89,152.9l41.91-11.32,41.94-11.24c28-7.51,55.94-14.87,83.91-22.31l84-22.09,84-21.87c28-7.22,56-14.5,84.09-21.65S565,28.11,593,21l42.11-10.55L656.2,5.2Z" transform="translate(0 0)" />
						<polygon class="cls-7" points="677.28 1.86 676.83 44.31 676.31 86.76 675.25 171.65 672.83 341.44 670.14 511.22 667.24 680.99 664.1 850.76 660.74 1020.53 657.12 1190.29 655.14 1275.17 654.15 1317.61 653.09 1360.05 653.53 1317.6 654.06 1275.15 655.11 1190.26 657.54 1020.47 660.22 850.69 663.13 680.92 666.27 511.15 669.64 341.38 673.26 171.62 675.23 86.74 676.22 44.3 677.28 1.86" />
						<polygon class="cls-7" points="679.27 1 687.77 6.18 687.8 6.2 687.8 6.24 686.91 90.39 685.95 174.53 683.7 342.81 681.22 511.08 678.51 679.35 675.59 847.61 672.43 1015.88 669.04 1184.14 667.18 1268.26 665.25 1352.39 665.25 1352.42 665.22 1352.44 657.49 1357.8 665.14 1352.33 665.12 1352.38 666 1268.24 666.96 1184.1 669.21 1015.82 671.69 847.55 674.4 679.28 677.33 511.01 680.48 342.75 683.88 174.49 685.73 90.37 687.66 6.24 687.69 6.3 679.27 1" />
						<polygon class="cls-7" points="689.38 13.8 701.48 14.63 701.56 14.63 701.56 14.72 700.56 96.64 699.49 178.56 697.04 342.39 694.34 506.22 691.43 670.04 688.3 833.86 684.94 997.68 681.34 1161.49 679.38 1243.39 677.35 1325.3 677.35 1325.35 677.3 1325.36 668.31 1327.35 677.26 1325.23 677.21 1325.29 678.2 1243.37 679.26 1161.45 681.71 997.62 684.41 833.79 687.32 669.97 690.45 506.15 693.81 342.33 697.4 178.52 699.36 96.62 701.38 14.72 701.46 14.81 689.38 13.8" />
						<polygon class="cls-7" points="697.5 11.38 713.62 12.15 713.73 12.16 713.73 12.28 711.64 174.99 709.17 337.69 706.47 500.39 703.54 663.08 700.4 825.77 697.04 988.46 693.44 1151.14 691.48 1232.48 689.44 1313.82 689.44 1313.87 689.39 1313.88 680.83 1315.49 689.36 1313.75 689.31 1313.82 690.31 1232.46 691.37 1151.1 693.83 988.4 696.52 825.7 699.44 663.01 702.57 500.32 705.93 337.63 709.52 174.95 713.49 12.27 713.6 12.39 697.5 11.38" />
						<path class="cls-7" d="M714.8,10.33l10.86-.08h.09v.08q-1.66,164.06-4.45,328.09l-2.71,164-2.92,164-3.14,164-3.36,164-3.61,164-2,82-2,82v.07l-.07,0-12.12,2.58,12.08-2.77-.07.09,1-82,1.08-82,2.46-164,2.7-164,2.94-164,3.14-164,3.37-164,3.6-164,3.91-164,.08.08Z" transform="translate(0 0)" />
						<polygon class="cls-7" points="727.63 13.8 737.77 14.64 737.84 14.65 737.84 14.72 736.84 95.07 735.77 175.42 733.32 336.11 730.63 496.8 727.71 657.48 724.58 818.16 721.23 978.84 717.63 1139.51 715.67 1219.84 713.63 1300.17 713.63 1300.23 713.58 1300.24 704.85 1302.32 713.55 1300.1 713.5 1300.17 714.49 1219.82 715.55 1139.47 718 978.78 720.69 818.09 723.61 657.41 726.74 496.73 730.1 336.05 733.7 175.38 735.66 95.05 737.68 14.72 737.75 14.8 727.63 13.8" />
						<path class="cls-7" d="M732.28,9.26,750,9.13h.13v.14L748,169.89l-2.48,160.62L742.8,491.12l-2.94,160.61-3.15,160.61-3.36,160.6-3.61,160.6-2,80.29-2,80.3v.06h-.07l-9.66,1.69,9.64-1.84-.06.07,1-80.31,1.07-80.31,2.47-160.62,2.7-160.62,2.93-160.61,3.14-160.6,3.36-160.6,3.6-160.6,1.95-80.3c.67-26.76,1.27-53.53,2-80.29l.14.14Z" transform="translate(0 0)" />
						<polygon class="cls-7" points="751.05 25.18 761.75 26.43 761.83 26.43 761.82 26.51 760.84 103.46 759.78 180.4 757.36 334.28 754.69 488.15 751.8 642.02 748.7 795.88 745.37 949.75 741.8 1103.6 739.85 1180.53 737.83 1257.45 737.83 1257.5 737.79 1257.52 728.87 1261.05 737.73 1257.38 737.68 1257.45 738.66 1180.5 739.72 1103.56 742.14 949.68 744.8 795.81 747.7 641.94 750.8 488.08 754.13 334.21 757.7 180.36 759.64 103.43 761.65 26.51 761.73 26.59 751.05 25.18" />
						<path class="cls-7" d="M649.37,1360.05c-20.34-13.63-40.45-27.58-60.47-41.64-10-7-20-14.13-30-21.19l-29.83-21.38-29.71-21.55c-9.86-7.25-19.76-14.43-29.57-21.75-19.67-14.55-39.25-29.22-58.6-44.23,20.35,13.62,40.45,27.57,60.48,41.64,10,7,20,14.12,30,21.19l29.84,21.38,29.7,21.56c9.85,7.24,19.76,14.43,29.56,21.74,19.67,14.55,39.26,29.23,58.61,44.23" transform="translate(0 0)" />
						<path class="cls-7" d="M365.14,1156.85c-25-18-49.8-36.35-74.49-54.8-12.37-9.2-24.65-18.51-37-27.77l-36.83-27.94-36.7-28.12c-12.19-9.44-24.42-18.82-36.56-28.31Q107.11,961.52,71,932.56c25,18,49.81,36.35,74.49,54.8,12.38,9.2,24.65,18.51,37,27.77l36.82,27.95L256,1071.2c12.19,9.44,24.41,18.81,36.55,28.31q36.5,28.4,72.56,57.34" transform="translate(0 0)" />
						<path class="cls-7" d="M39.09,911.25a40.15,40.15,0,0,1-6.7-4.26,68.25,68.25,0,0,1-5.89-5.09,66.61,66.61,0,0,1-5.28-5.73,39.5,39.5,0,0,1-4.46-6.57,39.47,39.47,0,0,1,6.7,4.25,66.89,66.89,0,0,1,5.89,5.1,70,70,0,0,1,5.28,5.73,40.55,40.55,0,0,1,4.46,6.57" transform="translate(0 0)" />
						<polygon class="cls-7" points="1063.28 1050.77 1061.26 1018.85 1059.31 986.93 1055.42 923.09 1047.95 795.4 1040.74 667.7 1033.76 539.98 1027 412.25 1020.47 284.51 1014.2 156.76 1011.23 92.87 1009.75 60.93 1008.34 28.98 1010.36 60.89 1012.32 92.81 1016.21 156.65 1023.67 284.34 1030.88 412.05 1037.86 539.76 1044.61 667.49 1051.14 795.23 1057.41 922.99 1060.39 986.87 1061.87 1018.82 1063.28 1050.77" />
						<path class="cls-7" d="M1063.28,1050.77l8.09-1.38-.06.08q-2-31.77-3.86-63.55l-3.8-63.56-7.27-127.12-7-127.13L1042.55,541,1036,413.8l-6.36-127.17-6.13-127.18-2.9-63.6-1.44-31.8-1.39-31.8,0,0-6.08-3.93,6.15,3.82h0v0l2,31.77,1.9,31.78,3.8,63.55,7.27,127.12,7,127.14,6.8,127.15,6.59,127.15,6.37,127.17,6.13,127.19,2.9,63.6q1.45,31.8,2.83,63.6v.07h-.07Z" transform="translate(0 0)" />
						<polygon class="cls-7" points="1072.34 1041.43 1081.68 1040.31 1081.6 1040.4 1077.73 978.68 1073.93 916.95 1066.63 793.48 1059.58 669.99 1052.75 546.49 1046.13 422.97 1039.74 299.45 1033.59 175.91 1030.68 114.13 1029.22 83.25 1027.83 52.35 1027.89 52.42 1020.9 51.04 1027.92 52.28 1027.97 52.29 1027.97 52.35 1029.95 83.21 1031.85 114.07 1035.67 175.8 1042.96 299.27 1050.02 422.76 1056.85 546.26 1063.46 669.78 1069.86 793.3 1076.01 916.84 1078.93 978.62 1081.79 1040.4 1081.79 1040.48 1081.7 1040.49 1072.34 1041.43" />
						<polygon class="cls-7" points="1078.7 1043.03 1091.16 1041.79 1091.05 1041.92 1087.2 980.62 1083.41 919.32 1079.74 858.01 1076.15 796.69 1069.13 674.05 1062.33 551.4 1055.74 428.75 1049.38 306.07 1043.25 183.38 1040.35 122.03 1038.9 91.36 1037.52 60.68 1037.58 60.74 1030.92 59.65 1037.6 60.61 1037.65 60.62 1037.66 60.67 1039.62 91.32 1041.52 121.97 1045.32 183.27 1052.59 305.89 1059.62 428.53 1066.43 551.18 1073.02 673.84 1079.4 796.51 1082.51 857.85 1085.53 919.2 1088.44 980.55 1091.29 1041.91 1091.3 1042.03 1091.18 1042.04 1078.7 1043.03" />
						<path class="cls-7" d="M1092.14,1043.34l8.42-.38-.08.09-7.63-123.62-7.3-123.65-7.07-123.65-6.85-123.65L1065,424.81l-6.4-123.69-6.17-123.69-2.93-61.86-2.85-61.86.07.09L1037.28,52l9.47,1.59h.07v.08l3.87,61.81,3.82,61.81,7.3,123.64,7.07,123.65,6.84,123.66L1082.36,672l6.4,123.68q6.33,123.69,11.89,247.41v.09h-.08Z" transform="translate(0 0)" />
						<path class="cls-7" d="M1102,1040.38l7.81-1.05-.06.08q-2-30.27-3.84-60.54l-3.76-60.54-7.21-121.11-7-121.12L1081.22,555l-6.54-121.15-6.31-121.15-6.06-121.17-2.87-60.6L1058,100.61l-1.37-30.3,0,.06-6.8-1.45,6.83,1.31,0,0v0l2,30.27,1.89,30.27,3.76,60.55,7.22,121.1,7,121.12,6.74,121.13,6.54,121.15,6.3,121.15,6.07,121.17,2.88,60.59c1,20.2,1.92,40.4,2.8,60.6v.08h-.08Z" transform="translate(0 0)" />
						<path class="cls-7" d="M1105.72,1043.67l13.72-.62-.13.14c-1.37-20.16-2.56-40.34-3.84-60.51l-3.75-60.51-3.65-60.53-3.56-60.53-7-121.06L1090.79,559l-6.54-121.09-6.31-121.1-6.08-121.12L1069,135.11q-1.44-30.29-2.81-60.57l.07.07-7.52-1.14,7.54,1h.06v.06q2,30.25,3.84,60.51l3.77,60.52,7.22,121.05,7,121.06,6.75,121.08,6.55,121.08,6.33,121.1,3.08,60.56,3,60.55,5.73,121.14v.14h-.13Z" transform="translate(0 0)" />
						<path class="cls-7" d="M1119.85,1031.15l8.24-1.39-.08.1q-1.93-29-3.73-58l-3.66-58-7-116-6.77-116-6.55-116L1094,450l-6.1-116-5.87-116-2.77-58q-1.39-29-2.7-58l0,.07-7-2.54,7,2.4h0v.06q2,29,3.74,58l3.66,58,7,116,6.77,116,6.54,116,6.33,116,6.11,116,5.86,116,2.78,58c.92,19.34,1.86,38.68,2.71,58v.08l-.08,0Z" transform="translate(0 0)" />
						<path class="cls-7" d="M1012.74,28.26c-5.49,1.86-11.06,3.33-16.65,4.67s-11.22,2.49-16.86,3.52-11.32,1.93-17,2.66-11.43,1.32-17.23,1.5c5.49-1.87,11.06-3.33,16.65-4.67s11.21-2.5,16.86-3.52,11.32-1.92,17-2.66,11.43-1.31,17.23-1.5" transform="translate(0 0)" />
						<polygon class="cls-7" points="959.49 1106.7 957.51 1072.13 955.61 1037.56 951.8 968.41 944.51 830.1 937.48 691.78 930.67 553.45 924.09 415.11 917.74 276.75 911.64 138.39 908.75 69.2 907.31 34.6 905.95 0 907.93 34.57 909.84 69.14 913.65 138.29 920.93 276.6 927.97 414.92 934.77 553.25 941.35 691.59 947.7 829.95 953.8 968.32 956.68 1037.51 958.13 1072.1 959.49 1106.7" />
						<polygon class="cls-7" points="961.06 1107.35 967.44 1102.79 967.41 1102.84 965.5 1068.58 963.65 1034.31 959.95 965.77 952.89 828.69 946.06 691.59 939.46 554.48 933.07 417.35 926.9 280.22 920.98 143.08 918.19 74.5 916.79 40.21 915.46 5.92 915.49 5.97 909.42 1.71 915.56 5.86 915.59 5.88 915.59 5.91 917.5 40.18 919.36 74.44 923.06 142.98 930.13 280.07 936.95 417.17 943.55 554.28 949.94 691.4 956.1 828.53 962.02 965.68 964.82 1034.26 966.22 1068.55 967.55 1102.84 967.55 1102.88 967.52 1102.9 961.06 1107.35" />
						<polygon class="cls-7" points="968.57 1096.64 977.91 1095.47 977.84 1095.56 974.05 1028.84 970.34 962.12 963.23 828.66 956.36 695.19 949.71 561.71 943.28 428.22 937.07 294.72 931.1 161.21 928.28 94.44 926.88 61.06 925.53 27.67 925.58 27.73 918.59 26.24 925.61 27.61 925.66 27.61 925.66 27.67 927.59 61.02 929.45 94.38 933.17 161.1 940.29 294.56 947.16 428.03 953.81 561.51 960.24 695 966.45 828.5 972.42 962.01 975.25 1028.78 978.01 1095.55 978.01 1095.63 977.93 1095.64 968.57 1096.64" />
						<polygon class="cls-7" points="974.92 1098.38 987.38 1097.1 987.28 1097.22 983.52 1030.96 979.82 964.7 972.74 832.16 965.9 699.61 959.28 567.05 952.88 434.48 946.69 301.9 940.75 169.31 937.94 103 936.54 69.85 935.21 36.69 935.26 36.75 928.6 35.57 935.28 36.63 935.33 36.64 935.33 36.69 937.25 69.82 939.11 102.95 942.82 169.21 949.9 301.74 956.76 434.29 963.38 566.85 969.79 699.42 975.98 832 981.93 964.59 984.75 1030.9 987.51 1097.2 987.51 1097.32 987.4 1097.32 974.92 1098.38" />
						<path class="cls-7" d="M988.36,1098.76l8.43-.37-.08.07-7.45-133.62-7.12-133.63-6.89-133.64-6.66-133.65-6.45-133.67-6.23-133.67-6-133.68L947.1,96l-2.77-66.85.07.08L935,27.34l9.47,1.76h.06v.07L948.3,96,952,162.8l7.13,133.63L966,430.08l6.65,133.65,6.45,133.67,6.22,133.67q6.14,133.68,11.51,267.39v.08h-.08Z" transform="translate(0 0)" />
						<path class="cls-7" d="M998.22,1095.58l7.82-1.1-.06.08q-2-32.71-3.74-65.44l-3.68-65.44-7-130.9-6.79-130.91L978.17,571,971.81,440l-6.13-130.94L959.8,178.13,957,112.64,955.63,79.9l-1.32-32.75.05.06-6.8-1.57,6.83,1.45h.05v0l1.9,32.71,1.85,32.72L961.87,178l7,130.89,6.8,130.91,6.56,130.92,6.35,130.93,6.13,130.94,5.89,131,2.78,65.48q1.4,32.75,2.72,65.49v.07h-.07Z" transform="translate(0 0)" />
						<path class="cls-7" d="M1001.94,1099.15l13.72-.61-.12.13c-1.33-21.8-2.51-43.6-3.75-65.41l-3.67-65.41-7-130.83L994.3,706.17l-6.57-130.86-6.36-130.87-6.13-130.88-5.9-130.89-2.79-65.46-1.39-32.73-1.33-32.73.07.07-7.52-1.25,7.54,1.11H964v.06l1.9,32.7,1.85,32.7,3.68,65.41,7,130.84,6.8,130.84,6.58,130.86L998.2,706l6.14,130.88,5.9,130.9,5.55,130.91v.13h-.13Z" transform="translate(0 0)" />
						<path class="cls-7" d="M1016.09,1085.66l8.24-1.46-.07.08q-1.89-31.32-3.64-62.66L1017,959l-6.84-125.34-6.59-125.36L997.23,582.9l-6.16-125.38-5.93-125.38-5.69-125.4L976.77,144q-1.35-31.35-2.62-62.71l.05.07-7-2.76,7,2.62,0,0v0Q976.2,112.65,978,144l3.58,62.66L988.37,332,995,457.33l6.37,125.37,6.16,125.37,5.93,125.39,5.7,125.39,2.68,62.71q1.35,31.35,2.62,62.71v.08h-.07Z" transform="translate(0 0)" />
						<path class="cls-7" d="M909.42,1.71c-12.12,3.65-24.33,6.91-36.56,10-6.12,1.6-12.26,3-18.39,4.57L836,20.64l-18.49,4.13c-6.18,1.3-12.34,2.67-18.53,3.9-12.38,2.52-24.78,4.91-37.28,6.9,12.11-3.66,24.32-6.91,36.56-10,6.11-1.59,12.26-3,18.38-4.56l18.44-4.34,18.49-4.12c6.17-1.3,12.34-2.67,18.53-3.9,12.38-2.52,24.78-4.91,37.28-6.91" transform="translate(0 0)" />
						<path class="cls-7" d="M923.94,1079.29a75.45,75.45,0,0,1,9.5,5.4c3,2,5.95,4.1,8.79,6.31s5.59,4.56,8.25,7A76.48,76.48,0,0,1,958,1106a74.82,74.82,0,0,1-9.51-5.39c-3-2-6-4.1-8.79-6.32s-5.59-4.56-8.24-7a75.43,75.43,0,0,1-7.52-7.93" transform="translate(0 0)" />
						<path class="cls-7" d="M1045.27,1035.91a22.26,22.26,0,0,1,5.42,2.26,37.9,37.9,0,0,1,4.7,3.17,36,36,0,0,1,4.14,3.87A22,22,0,0,1,1063,1050a22.33,22.33,0,0,1-5.43-2.26,36,36,0,0,1-8.83-7,22.54,22.54,0,0,1-3.42-4.78" transform="translate(0 0)" />
					</g>
				</g>
			</g>
		</g>
	</g>
</svg>
