<svg xmlns="http://www.w3.org/2000/svg" viewBox="0 0 18 18">
	<path id="iconmonstr-calendar-5" d="M18,1.5V18H0V1.5H2.25v.75a1.5,1.5,0,0,0,3,0V1.5h7.5v.75a1.5,1.5,0,0,0,3,0V1.5ZM16.5,6H1.5V16.5h15ZM15,.75a.75.75,0,0,0-1.5,0v1.5a.75.75,0,0,0,1.5,0ZM4.5,2.25a.75.75,0,0,1-1.5,0V.75a.75.75,0,0,1,1.5,0ZM9.515,12.361a1.3,1.3,0,0,0-.832-1.271,1.193,1.193,0,0,0,.627-1.127A1.786,1.786,0,0,0,7.375,8.351a1.923,1.923,0,0,0-1.994,2.072H6.614c-.01-.571.2-.986.769-.986a.651.651,0,0,1,.7.652c0,.565-.612.646-1.175.6v.96c.8,0,1.278.05,1.278.739a.762.762,0,0,1-.818.786c-.617,0-.869-.46-.891-1.089H5.251A1.954,1.954,0,0,0,7.382,14.25,1.947,1.947,0,0,0,9.515,12.361ZM12.75,14.25V8.462H11.706c-.13.865-.746,1.118-1.628,1.094v1.009h1.389V14.25Z" fill="#fff" />
</svg>
