<svg xmlns="http://www.w3.org/2000/svg" viewBox="0 0 20.1 23.42">
	<path id="copy" d="M86.982,6.965c-.935-.911-1.864-1.832-2.787-2.752a1.007,1.007,0,0,0-.752-.3q-5.748,0-11.5,0a.75.75,0,0,0-.848.855V22.541c0,.628.241.876.864.878,1.035,0,2.073,0,3.108,0H86.411c.656,0,.881-.225.881-.876q0-7.406,0-14.814A1,1,0,0,0,86.982,6.965ZM85.6,22.021q-6.324-.011-12.647-.007c-.539,0-.445.04-.447-.443q0-3.945,0-7.891,0-4.023,0-8.048c0-.239.077-.312.312-.312q3.489.011,6.977.007c1.009,0,2.021,0,3.031,0,.372,0,.372.007.372.391,0,.567-.007,1.131,0,1.7,0,.454.131.571.576.571.628,0,1.255.012,1.881,0,.2,0,.251.052.251.248q-.011,3.868,0,7.736c0,1.916,0,3.832.007,5.75,0,.234-.061.3-.3.3Zm5.6-10.807q0-3.685,0-7.368a1.054,1.054,0,0,0-.33-.815c-.9-.874-1.8-1.75-2.677-2.642A1.242,1.242,0,0,0,87.242,0Q82.12.01,77,0c-.4,0-.8-.009-1.2,0A.719.719,0,0,0,75,.8c-.007.443,0,.888,0,1.333,0,.143.04.2.192.2.253-.012.506,0,.757,0,.452,0,.445,0,.452-.452.009-.5-.1-.466.48-.468q3.278,0,6.558,0c1.115,0,2.23,0,3.345,0,.227,0,.316.059.309.307-.019.618-.012,1.237-.007,1.855,0,.365.15.5.508.5.637,0,1.272.016,1.906,0,.239-.007.29.077.288.3-.009,1.471,0,2.944,0,4.415q0,4.339,0,8.673c0,.63,0,.63-.637.637a.378.378,0,0,1-.052,0c-.141-.012-.208.047-.206.194q.007.509,0,1.019c0,.145.059.2.2.2.471,0,.942.009,1.41-.009a.668.668,0,0,0,.686-.677,2.408,2.408,0,0,0,0-.26q.007-3.675,0-7.345ZM83.52,18.336a.527.527,0,0,0-.3-.045H79.194v0H76.426c-.478,0-.958,0-1.436,0a.274.274,0,1,0-.012.548c.07,0,.138,0,.208,0q3.436,0,6.869,0c.426,0,.853,0,1.279,0a.268.268,0,0,0,.293-.208.252.252,0,0,0-.108-.3Zm-.293-2.818q-4.061,0-8.125,0c-.279,0-.422.094-.408.286.019.246.2.272.4.272,1.349,0,2.7,0,4.05,0v0h2.534c.548,0,1.1,0,1.647,0,.234,0,.363-.15.309-.344S83.4,15.519,83.228,15.519Zm.04-2.778H79.194v0H77.862l-2.82,0c-.187,0-.337.049-.34.267s.15.272.333.281c.07,0,.138,0,.208,0h5.979c.7,0,1.41,0,2.115,0a.273.273,0,0,0,.272-.408c-.077-.131-.208-.136-.342-.136Zm-8.209-2.255c.522,0,1.045,0,1.567,0,.539,0,1.08,0,1.618,0,.2,0,.358-.068.354-.286,0-.2-.152-.269-.347-.269l-3.185,0c-.19,0-.361.047-.363.276S74.859,10.488,75.058,10.486Z" transform="translate(-71.1)" />
</svg>
