<svg xmlns="http://www.w3.org/2000/svg" viewBox="0 0 618.63 371.69"><defs><style>.cls-1{fill:#1d1d1b;}</style></defs><g id="Capa_2" data-name="Capa 2"><g id="Capa_1-2" data-name="Capa 1"><path class="cls-1" d="M60,254.58c.64,0,.76-.37.64-.76L49.15,222.57c-.12-.5-.25-1.14-.63-1.14s-.63.64-.76,1.14L36.07,253.69c-.13.52,0,.89.5.89ZM34,260.94c-.63,0-.89.25-1.15,1L26,279.35a24.47,24.47,0,0,0-1.91,7.75c0,2.29,1.14,3.94,5.08,3.94h1.91c1.52,0,1.9.25,1.9,1,0,1-.76,1.27-2.16,1.27-4.06,0-9.52-.39-13.46-.39-1.4,0-8.38.39-15,.39-1.65,0-2.41-.26-2.41-1.27,0-.77.51-1,1.52-1a37.77,37.77,0,0,0,3.94-.26c5.84-.76,8.25-5.08,10.8-11.43L48.14,200.6c1.52-3.68,2.28-5.08,3.55-5.08s1.91,1.15,3.18,4.06c3,7,23.37,57.8,31.5,77.11,4.83,11.43,8.51,13.21,11.18,13.84a27.91,27.91,0,0,0,5.33.51c1,0,1.66.13,1.66,1s-1.15,1.27-5.85,1.27-13.85,0-24-.26c-2.29-.13-3.82-.13-3.82-1s.52-1,1.78-1.15A2.07,2.07,0,0,0,73.8,288L63.63,261.83a1.21,1.21,0,0,0-1.27-.89Z"/><path class="cls-1" d="M574.05,254.58c.63,0,.75-.37.63-.76l-11.44-31.25c-.12-.5-.25-1.14-.63-1.14s-.63.64-.76,1.14l-11.69,31.12c-.12.52,0,.89.51.89Zm-25.92,6.36c-.63,0-.88.25-1.14,1l-6.86,17.4a24.67,24.67,0,0,0-1.9,7.75c0,2.29,1.14,3.94,5.08,3.94h1.9c1.52,0,1.91.25,1.91,1,0,1-.76,1.27-2.16,1.27-4.07,0-9.53-.39-13.47-.39-1.39,0-8.38.39-15,.39-1.66,0-2.41-.26-2.41-1.27,0-.77.5-1,1.52-1a37.4,37.4,0,0,0,3.93-.26c5.85-.76,8.26-5.08,10.8-11.43l31.88-78.75c1.53-3.68,2.29-5.08,3.56-5.08s1.9,1.15,3.18,4.06c3,7,23.36,57.8,31.5,77.11,4.82,11.43,8.51,13.21,11.17,13.84A28,28,0,0,0,617,291c1,0,1.65.13,1.65,1s-1.15,1.27-5.85,1.27-13.84,0-24-.26c-2.29-.13-3.81-.13-3.81-1s.51-1,1.77-1.15a2.06,2.06,0,0,0,1.15-2.92l-10.16-26.16a1.23,1.23,0,0,0-1.27-.89Z"/><path class="cls-1" d="M131.36,267.65c0,11.44,0,17.1,1.94,18.79,1.54,1.36,5,1.88,12,1.88,4.81,0,8.29-.1,10.54-2.52a10.76,10.76,0,0,0,2.25-5.35c.11-.84.31-1.36,1-1.36s.83.94.83,2a69.2,69.2,0,0,1-1.34,10.28c-.61,2-1,2.42-5.73,2.42-6.45,0-11.67-.11-16.17-.32s-8.29-.21-12-.21c-1,0-3,.11-5.11.11s-4.41.21-6.25.21c-1.12,0-1.74-.32-1.74-.95,0-.42.3-.94,1.43-.94a13,13,0,0,0,3.18-.32c1.84-.41,2.35-2.09,2.66-4.72.4-3.77.4-10.81.4-19V251.91c0-13.54,0-16-.1-18.89-.2-3-1-4-3.89-4.82a11.19,11.19,0,0,0-3-.32c-1,0-1.54-.31-1.54-.94s.61-.84,1.95-.84c4.19,0,9.92.21,12.38.21,2.15,0,9.52-.21,13-.21,1.33,0,1.95.21,1.95.84s-.52.94-1.64.94a18.7,18.7,0,0,0-3.48.32c-2.45.41-3.17,1.68-3.38,4.82-.2,2.84-.2,5.35-.2,18.89Z"/><path class="cls-1" d="M182.83,231.55l-13.4.32c-5.23.1-7.37.73-8.7,2.73a10.11,10.11,0,0,0-1.54,3c-.2.73-.41,1.15-1,1.15s-.82-.52-.82-1.47c0-1.47,1.74-10.07,1.94-10.8.21-1.16.51-1.69,1-1.69.72,0,1.65.74,3.89,1.06a83.76,83.76,0,0,0,9,.41h36.54a39.06,39.06,0,0,0,6.13-.41c1.44-.22,2.15-.42,2.46-.42.62,0,.72.52.72,1.89,0,1.88-.21,8.49-.21,10.8-.1,1-.3,1.47-.82,1.47-.71,0-.92-.41-1-1.78l-.1-.95c-.2-2.3-2.56-5-10.64-5.14l-11.36-.21v36.1c0,8.19.1,15.21.51,19.1.3,2.52.81,4.19,3.48,4.61a31.34,31.34,0,0,0,4.6.32c1,0,1.44.52,1.44.94,0,.63-.72.95-1.74.95-5.94,0-12-.32-14.54-.32-2,0-8.18.32-11.77.32-1.12,0-1.74-.32-1.74-.95,0-.42.31-.94,1.44-.94a11.9,11.9,0,0,0,3.17-.32c1.84-.42,2.36-2.09,2.66-4.72.41-3.78.41-10.8.41-19Z"/><path class="cls-1" d="M235.63,251.91c0-13.54,0-16.06-.1-18.89-.21-3-1.13-4.09-3.07-4.72a11.44,11.44,0,0,0-3.28-.42c-.92,0-1.43-.21-1.43-1,0-.53.71-.73,2.15-.73,3.38,0,9.52.2,12.07.2,2.26,0,8.09-.2,11.57-.2,1.13,0,1.84.2,1.84.73,0,.84-.51,1-1.43,1a12.2,12.2,0,0,0-2.66.32c-2.46.42-3.18,1.67-3.38,4.82-.2,2.83-.2,5.35-.2,18.89v15.74c0,8.6,0,15.74.4,19.52.31,2.41.92,3.77,3.59,4.2a34.38,34.38,0,0,0,4.6.31c1,0,1.43.53,1.43.94,0,.63-.71.95-1.73.95-5.94,0-12.08-.32-14.54-.32-2,0-8.18.32-11.77.32-1.12,0-1.74-.32-1.74-.95,0-.41.31-.94,1.44-.94a13.47,13.47,0,0,0,3.17-.31c1.84-.43,2.35-1.68,2.66-4.31.41-3.67.41-10.81.41-19.41Z"/><path class="cls-1" d="M272.36,292.41c-1.43-.63-1.74-1-1.74-3,0-4.83.41-10.39.51-11.86s.42-2.3,1.13-2.3.92.83.92,1.46a16.7,16.7,0,0,0,.83,4.62c1.93,6.61,8.69,8.82,14.32,8.82,7.78,0,12.49-5,12.49-11.34,0-3.88-.93-7.76-8.91-12.59L286.69,263c-10.64-6.4-14.12-12.38-14.12-20.25,0-10.91,10.23-17.94,22.72-17.94a52.22,52.22,0,0,1,12.79,1.46c.82.22,1.23.53,1.23,1.16,0,1.15-.31,3.67-.31,10.7,0,1.89-.41,2.84-1.13,2.84s-.91-.53-.91-1.58a10.17,10.17,0,0,0-2.36-5.87c-1.33-1.68-4.19-4.2-10-4.2-6.44,0-12.28,3.46-12.28,9.55,0,4,1.43,7.13,9.52,11.75l3.69,2.1c11.86,6.72,15.55,13.54,15.55,21.62,0,6.61-2.46,12-9,16.68-4.29,3.14-10.23,3.67-15,3.67-5.22,0-10.75-.53-14.64-2.31"/><path class="cls-1" d="M327.62,292.41c-1.43-.63-1.74-1-1.74-3,0-4.83.41-10.39.51-11.86s.42-2.3,1.13-2.3.92.83.92,1.46a17,17,0,0,0,.82,4.62c1.94,6.61,8.7,8.82,14.33,8.82,7.77,0,12.48-5,12.48-11.34,0-3.88-.92-7.76-8.9-12.59L342,263c-10.64-6.4-14.13-12.38-14.13-20.25,0-10.91,10.24-17.94,22.73-17.94a52.29,52.29,0,0,1,12.79,1.46c.82.22,1.22.53,1.22,1.16,0,1.15-.3,3.67-.3,10.7,0,1.89-.41,2.84-1.13,2.84s-.92-.53-.92-1.58a10.21,10.21,0,0,0-2.35-5.87c-1.33-1.68-4.2-4.2-10-4.2-6.45,0-12.28,3.46-12.28,9.55,0,4,1.43,7.13,9.52,11.75l3.68,2.1c11.87,6.72,15.55,13.54,15.55,21.62,0,6.61-2.45,12-9,16.68-4.3,3.14-10.23,3.67-15,3.67-5.23,0-10.75-.53-14.64-2.31"/><path class="cls-1" d="M385.75,251.91c0-13.54,0-16.06-.11-18.89-.2-3-1.12-4.09-3.07-4.72a11.37,11.37,0,0,0-3.27-.42c-.92,0-1.44-.21-1.44-1,0-.53.72-.73,2.16-.73,3.37,0,9.51.2,12.07.2,2.26,0,8.09-.2,11.56-.2,1.13,0,1.85.2,1.85.73,0,.84-.51,1-1.44,1a12.2,12.2,0,0,0-2.66.32c-2.45.42-3.17,1.67-3.37,4.82-.21,2.83-.21,5.35-.21,18.89v15.74c0,8.6,0,15.74.41,19.52.31,2.41.92,3.77,3.58,4.2a34.53,34.53,0,0,0,4.61.31c1,0,1.43.53,1.43.94,0,.63-.71.95-1.74.95-5.93,0-12.07-.32-14.53-.32-2.05,0-8.19.32-11.77.32-1.13,0-1.74-.32-1.74-.95,0-.41.31-.94,1.44-.94a13.53,13.53,0,0,0,3.17-.31c1.84-.43,2.35-1.68,2.66-4.31.41-3.67.41-10.81.41-19.41Z"/><path class="cls-1" d="M430.77,226.83c.21-1.47,1-2.31,1.74-2.31.92,0,1.54.42,2.77,2.83l24.14,49.32,24.16-50c.71-1.46,1.53-2.2,2.35-2.2s1.74.95,2.05,2.83l8.18,54.89c.82,5.56,1.64,8,4.4,8.81a17.21,17.21,0,0,0,5.12.84c.82,0,1.43.31,1.43.84,0,.73-1,1-2.35,1-2.25,0-15-.32-18.63-.53-2.15-.1-2.66-.52-2.66-1.05s.41-.73,1-.94.72-1.26.42-3.78l-5-38.51h-.31l-19.34,39.46c-2,4.2-2.55,5-3.58,5s-2.15-1.78-3.58-4.51c-2.15-4.09-9.31-17.73-10.34-20.25-.71-1.68-6-12.49-9-18.68h-.31l-4.3,34.42a30.83,30.83,0,0,0-.3,4.19c0,1.69,1.23,2.32,2.76,2.63a15.56,15.56,0,0,0,3.17.42c.82,0,1.43.42,1.43.84,0,.84-.81,1.05-2.14,1.05-3.79,0-7.89-.32-9.52-.32s-6,.32-8.9.32c-.93,0-1.64-.21-1.64-1.05,0-.42.51-.84,1.43-.84a15.82,15.82,0,0,0,2.76-.21c2.46-.31,3.28-3.88,3.68-6.82Z"/><path class="cls-1" d="M386.85,359.51c0,3.68,0,6.85-.2,8.53-.16,1.17-.36,2-1.16,2.21a6.53,6.53,0,0,1-1.44.16c-.48,0-.64.12-.64.32s.28.4.8.4c.8,0,1.84-.08,2.76-.08s1.85,0,2.29,0c1.2,0,2.44,0,4.16.12s3.93.12,6.94.12c1.52,0,1.88,0,2.16-1a31.33,31.33,0,0,0,.52-4.45c0-.4,0-.72-.32-.72s-.36.16-.44.6c-.28,1.65-.77,2.49-1.8,3a10.2,10.2,0,0,1-3.77.48c-4.09,0-4.73-.6-4.81-3.37,0-1.16,0-4.85,0-6.21v-3.17c0-.24,0-.4.24-.4,1,0,4.93,0,5.69.12,1.49.16,2.05.76,2.25,1.56a10.66,10.66,0,0,1,.16,1.45.32.32,0,0,0,.36.36c.35,0,.35-.44.35-.76s.12-1.89.16-2.69c.16-2,.32-2.68.32-2.92s-.12-.32-.28-.32-.35.2-.63.52-1,.52-1.93.6-5.53.08-6.41.08c-.24,0-.28-.16-.28-.44V343.36c0-.28.08-.4.28-.4.8,0,5,.08,5.69.16,2,.24,2.41.72,2.69,1.44a4.29,4.29,0,0,1,.24,1.44c0,.36.08.56.36.56s.35-.24.39-.44c.08-.47.16-2.24.2-2.64.13-1.84.33-2.32.33-2.6s0-.36-.24-.36a3.53,3.53,0,0,0-.64.16,16,16,0,0,1-1.72.24c-.77,0-8.74,0-10,0-.56,0-1.49,0-2.53-.08s-2.16,0-3.24,0c-.61,0-.89.08-.89.35s.24.36.69.36a8.23,8.23,0,0,1,1.56.12c1.32.29,1.64.93,1.72,2.29s.08,2.41.08,8.5ZM338.69,349h.13c.72.76,5.16,5.65,9.53,10,4.16,4.12,9.29,9.37,11.81,11.78.44.44.92.88,1.36.88s.52-.36.52-1.24l.44-25.29c0-2.25.36-3.09,1.48-3.41a4.39,4.39,0,0,1,1.21-.12q.72,0,.72-.36c0-.31-.4-.35-.93-.35-2,0-3.48.11-3.92.11-.84,0-2.76-.11-4.84-.11-.6,0-1,0-1,.35s.16.36.64.36a6.53,6.53,0,0,1,2.12.24c1,.4,1.32,1.17,1.36,3.61l.4,18h-.2c-.68-.64-6.09-6.41-8.81-9.13-5.85-5.81-11.93-12.22-12.42-12.74-.68-.72-1-1.24-1.48-1.24s-.53.56-.53,1.36l-.36,23.6c0,3.49-.2,4.65-1.24,5a7.17,7.17,0,0,1-1.81.2c-.4,0-.64.08-.64.32s.36.4.88.4c2.09,0,4-.12,4.34-.12.76,0,2.37.12,5,.12.56,0,.92-.08.92-.4s-.24-.32-.68-.32a6.32,6.32,0,0,1-2.08-.28c-.8-.28-1.32-1.32-1.4-4.45Zm-37.12,20.72c-7.7,0-12.3-6.61-12.3-14.95,0-10,5.25-12.55,9.85-12.55,6.58,0,11.75,5.57,11.75,14.56C310.87,368.33,304.37,369.69,301.57,369.69Zm-1.68,2c10.18,0,16.59-7.25,16.59-16.43s-6.21-15-16.19-15c-12,0-16.55,8.85-16.55,15.71C283.74,363.08,288.38,371.69,299.89,371.69Zm-46.41-12.18c0,3.69,0,6.85-.2,8.54-.12,1.16-.36,2-1.16,2.2a6.71,6.71,0,0,1-1.45.16c-.48,0-.64.12-.64.32s.28.4.8.4c1.61,0,4.13-.12,5-.12,1.12,0,3.65.12,6.29.12.45,0,.77-.12.77-.4s-.2-.32-.65-.32a16.85,16.85,0,0,1-2-.16c-1.2-.16-1.44-1-1.56-2.16-.21-1.73-.21-4.89-.21-8.58V343.08l5.06.12c3.56.08,4.65,1.2,4.73,2.24l0,.44c0,.6.12.8.44.8s.32-.24.36-.64c0-1,.11-3.8.11-4.64,0-.6,0-.84-.31-.84a9.6,9.6,0,0,0-1.08.2,19.46,19.46,0,0,1-2.77.2H249.19c-1.32,0-2.85-.08-4-.2a9.27,9.27,0,0,1-1.72-.48c-.24,0-.36.24-.48.76-.08.32-.84,4-.84,4.6,0,.44.08.64.36.64s.36-.16.44-.48a4.74,4.74,0,0,1,.68-1.4c.6-.88,1.56-1.08,3.89-1.16l6-.16Zm-37,12.18a11.59,11.59,0,0,0,6.37-1.64,8.07,8.07,0,0,0,3.77-7c0-3.81-1.73-6.57-6.58-10.23l-1.12-.84c-3.32-2.52-4.25-3.93-4.25-5.77,0-2.4,1.81-4.13,4.77-4.13a5.07,5.07,0,0,1,4.37,2,4.8,4.8,0,0,1,1.05,2.64c0,.48.11.72.39.72s.44-.32.44-1.2c0-3.12.17-4.29.17-4.81,0-.27-.21-.39-.57-.47a19.32,19.32,0,0,0-5.33-.68c-5.57,0-9.25,3.16-9.25,7.56,0,3.25,1.52,6.06,5.93,9.51l1.84,1.44c3.33,2.61,3.93,4.45,3.93,6.41,0,2.13-1.76,4.57-5.37,4.57a5.51,5.51,0,0,1-5.73-4,8.45,8.45,0,0,1-.36-2c0-.32,0-.68-.4-.68s-.44.44-.48,1-.2,3-.2,5.25c0,.88.12,1.08.76,1.36A13.88,13.88,0,0,0,216.45,371.69Z"/><path d="M311.67,169.06H247.84l-7.62,13.86a.5.5,0,0,1-.46.28h-8.07l6.85-14.15L227,145.48l20.23,5.63L308.26,25l.11-.24L320.33,0h.75l51,161L393,153.64l-16.65,15.42,7.77,13.37a.51.51,0,0,1-.44.77H357.5a.51.51,0,0,1-.48-.33l-26.54-67.63L314,30.7l-36.59,84.49-21.12,38.45Z"/></g></g></svg>