<svg xmlns="http://www.w3.org/2000/svg" viewBox="0 0 128.17 31.16"><g id="Capa_2" data-name="Capa 2"><g id="Capa_1-2" data-name="Capa 1"><path d="M2.16,0H11.8l4.6,7.8L21,0h9.63L21,14,32.15,30.16H22.72L16.4,20.32,9.48,30.16H0L11.8,14Z"/><path d="M43,30.16H41.12V1.8h-7.8V0h94.85V1.8H43Z"/><path d="M77.56,17.08a13.69,13.69,0,0,1-27.37,0,13.69,13.69,0,0,1,27.37,0Zm-25.69,0a12,12,0,0,0,24,0,12,12,0,0,0-24,0Z"/><path d="M108.48,31.16,86.32,7.6V30.28H84.64V3.54L106.8,26.92v-23h1.68Z"/><path d="M117.25,5.46v9.59h10.64v1.58H117.25V28.71h10.92v1.57h-12.6V3.89h12.6V5.46Z"/></g></g></svg>