<svg xmlns="http://www.w3.org/2000/svg" viewBox="0 0 897.31 93.49">
	<defs>
		<style>
			.cls-1{fill:#fff;}
		</style>
	</defs>
	<g id="Capa_2" data-name="Capa 2">
		<g id="Capa_1-2" data-name="Capa 1">
			<path class="cls-1" d="M0,91c4.8-1.6,5.78-3.57,5.78-10.33V12.43c0-6.77-1-8.74-5.78-10.34V1.48H33.21c19.43,0,28.29,11.81,28.29,23.86,0,13.41-9.72,26.45-28.29,26.45A52.21,52.21,0,0,1,17.59,49.2V80.7c0,6.88,1.35,8.73,8.24,10.33v.61H0ZM17.59,5.9V43.79A24.78,24.78,0,0,0,28.66,46.5C41.82,46.5,49,35.67,49,24.6,49,15,43.3,5.9,29.64,5.9Z" />
			<path class="cls-1" d="M69.54,45.76C69.54,20.42,91.68,0,119.23,0,146.3,0,167,20.54,167,47.36c0,25.34-22.14,45.76-49.7,45.76C90.21,93.12,69.54,72.58,69.54,45.76Zm84.14,1.48c0-23.75-16.24-42.69-36.66-42.69-21.28,0-34.2,15.5-34.2,41,0,23.87,16.36,42.93,36.91,42.93C140.76,88.44,153.68,72.82,153.68,47.24Z" />
			<path class="cls-1" d="M253.49,90.66v.61a34.92,34.92,0,0,1-6.88.37c-7.63,0-12.67-2.83-16.61-9.35l-15.13-25c-3.32-5.53-5.66-7.25-9.84-7.25h-8.61V80.7c0,6.76,1,8.73,5.78,10.33v.61H178.83V91c4.8-1.6,5.78-3.57,5.78-10.33V12.43c0-6.77-1-8.74-5.78-10.34V1.48h28.29c20,0,30.26,9.47,30.26,21.15,0,11.2-8.24,20.92-19.19,24.12,5.17,2.57,10.09,8.6,16.36,19.43C244.51,83.9,248.21,88.57,253.49,90.66ZM224.83,23.74c0-11.44-7.62-17.84-20.91-17.84h-7.5V44.78a28.69,28.69,0,0,0,6.64.49C216.1,45.27,224.83,36.66,224.83,23.74Z" />
			<path class="cls-1" d="M251.69,46c0-24.48,23.13-46,49.45-46a63.22,63.22,0,0,1,33,9.72V28.54h-.62c-5.41-15.87-16.23-23.62-32.84-23.62C279,4.92,265,21.16,265,46c0,23.75,16.36,42.08,37.39,42.08,15.13,0,26.33-7.76,32-22.39H335V84c-10.21,6.27-20.67,9.1-33.83,9.1C273.22,93.12,251.69,72.58,251.69,46Z" />
			<path class="cls-1" d="M386.93,5.9H364.3V40.22h16.48c7.14,0,9.1-.61,10.83-3.56h.61V48.71h-.61c-1.73-3-3.69-3.57-10.83-3.57H364.3V84.39c3.44,1.47,8.36,2.21,15.37,2.21,14.89,0,21-1.85,25-7.75h.5l-2.46,12.79h-56V91c4.8-1.6,5.78-3.57,5.78-10.33V12.43c0-6.77-1-8.74-5.78-10.34V1.48h53.14v8h-.74C397.14,6.52,395.05,5.9,386.93,5.9Z" />
			<path class="cls-1" d="M445.52,86.6c13.78,0,19.81-2,23.74-7.75h.5l-2.47,12.79h-53.5V91c4.8-1.6,5.78-3.57,5.78-10.33V12.43c0-6.77-1-8.74-5.78-10.34V1.48h23.37v.61c-4.8,1.6-5.78,3.57-5.78,10.34v72C434.82,85.86,439.49,86.6,445.52,86.6Z" />
			<path class="cls-1" d="M556.26,91v.61H534.37V91c3.44-1.23,3.93-3,2.21-7.13L528.34,64H492.66L484.43,83.9c-1.73,4.18-1.24,5.9,2.21,7.13v.61H471V91c3.7-1.23,5.54-3.2,7.51-7.75L514,0h.74l34.07,83.28C551,88,552.7,89.8,556.26,91Zm-29.89-32L510.5,20.66,494.63,59.05Z" />
			<path class="cls-1" d="M635.16,69.75V12.43c0-6.77-1-8.74-5.78-10.34V1.48h17.1v.61c-4.8,1.6-5.78,3.57-5.78,10.34V93.49h-.5L575,16.12V80.7c0,6.76,1,8.73,5.78,10.33v.61h-17.1V91c4.8-1.6,5.78-3.57,5.78-10.33V12.43c0-6.77-1-8.74-5.78-10.34V1.48h13.66Z" />
			<path class="cls-1" d="M657,45.76C657,20.42,679.13,0,706.68,0c27.06,0,47.73,20.54,47.73,47.36,0,25.34-22.14,45.76-49.7,45.76C677.65,93.12,657,72.58,657,45.76Zm84.15,1.48c0-23.75-16.24-42.69-36.66-42.69-21.28,0-34.2,15.5-34.2,41,0,23.87,16.36,42.93,36.91,42.93C728.21,88.44,741.13,72.82,741.13,47.24Z" />
			<path class="cls-1" d="M761.35,83.28V64.7H762C766.15,79.1,774.64,87,786.2,87.22c10.95.24,17-6.65,17-16.74,0-8-3.32-12.54-11.2-16.48l-12.42-6.27C767.38,41.58,763,35.3,762.71,24.23,762.46,9.72,773.65,0,790.76,0c8.36,0,15.62,2.58,19.55,6.89v13.9h-.61c-3.08-10.09-10.58-16-20.18-16-9.84,0-16.11,5.9-16.11,15.37,0,7.76,3,11.94,11.69,16.24l13.16,6.64c11,5.54,15.74,12.8,15.74,23.74,0,14.77-12.91,26.33-29.4,26.33C776.73,93.12,765.16,88.2,761.35,83.28Z" />
			<path class="cls-1" d="M897.31,91v.61h-21.9V91c3.45-1.23,3.94-3,2.22-7.13L869.39,64H833.71L825.47,83.9c-1.72,4.18-1.23,5.9,2.22,7.13v.61H812.06V91c3.69-1.23,5.54-3.2,7.51-7.75L855,0h.74l34.08,83.28C892,88,893.74,89.8,897.31,91Zm-29.89-32L851.55,20.66,835.68,59.05Z" />
		</g>
	</g>
</svg>
